<?xml version="1.0" encoding="utf-8"?><svg viewBox="0 0 25 25" xmlns="http://www.w3.org/2000/svg" xmlns:xlink="http://www.w3.org/1999/xlink"><style>:root>svg{display:none}:root>svg:target{display:block}</style><svg viewBox="0 0 25 25" id="arrow-r" xmlns="http://www.w3.org/2000/svg"><path d="M9.67 18.56l6-6-6-6" stroke-width="1.5"/></svg><svg viewBox="0 0 12 13" id="location" xmlns="http://www.w3.org/2000/svg"><path d="M11.364.082L.29 5.203a.518.518 0 00-.29.47c.004.196.134.342.314.355L5 7.68l1.305 4.78c.012.193.149.333.33.339a.443.443 0 00.334-.15.526.526 0 00.103-.162L11.84.595c.066-.162.041-.336-.061-.446-.102-.11-.264-.136-.415-.067z"/></svg><svg viewBox="0 0 16 12" id="mail" xmlns="http://www.w3.org/2000/svg"><path d="M15.86.804l-4.853 4.821 4.852 4.821A1.39 1.39 0 0016 9.844V1.406c0-.216-.053-.419-.14-.602zM14.593 0H1.406C1.19 0 .987.053.804.14l6.202 6.172c.548.548 1.44.548 1.988 0L15.196.14A1.39 1.39 0 0014.594 0zM.14.804A1.39 1.39 0 000 1.406v8.438c0 .216.053.419.14.602l4.853-4.821L.141.804z"/><path d="M10.345 6.29l-.687.686c-.914.913-2.4.913-3.314 0l-.687-.687L.805 11.11c.183.088.386.141.602.141h13.188c.216 0 .419-.053.602-.14l-4.852-4.822z"/></svg><svg viewBox="0 0 17 17" id="watch" xmlns="http://www.w3.org/2000/svg"><path d="M8.5 16a7.5 7.5 0 100-15 7.5 7.5 0 000 15z" stroke-width="1.536"/><path d="M8.938 3.777v4.747l-3.039 2.28" stroke-width="1.536" stroke-linecap="round"/></svg></svg>