<svg width="224" height="53" viewBox="0 0 224 53" fill="none" xmlns="http://www.w3.org/2000/svg">
<path d="M65.464 11.912C67.128 11.912 68.616 12.288 69.928 13.04C71.256 13.776 72.296 14.808 73.048 16.136C73.8 17.448 74.176 18.936 74.176 20.6C74.176 22.264 73.8 23.76 73.048 25.088C72.296 26.4 71.256 27.432 69.928 28.184C68.616 28.92 67.128 29.288 65.464 29.288C63.976 29.288 62.632 29.032 61.432 28.52C60.248 28.008 59.256 27.264 58.456 26.288L60.928 23.984C62.112 25.312 63.56 25.976 65.272 25.976C66.504 25.976 67.544 25.616 68.392 24.896C69.256 24.176 69.816 23.208 70.072 21.992H63.256V19.016H70.024C69.752 17.864 69.192 16.944 68.344 16.256C67.496 15.568 66.472 15.224 65.272 15.224C63.56 15.224 62.112 15.888 60.928 17.216L58.456 14.912C59.256 13.936 60.248 13.192 61.432 12.68C62.632 12.168 63.976 11.912 65.464 11.912ZM81.6848 22.232H78.9968V29H75.1328V12.2H78.9968V18.992H81.7808L86.1968 12.2H90.3008L84.8048 20.312L90.4688 29H86.0528L81.6848 22.232ZM98.1959 29.288C96.4519 29.288 94.8759 28.912 93.4679 28.16C92.0759 27.408 90.9799 26.376 90.1799 25.064C89.3959 23.736 89.0039 22.248 89.0039 20.6C89.0039 18.952 89.3959 17.472 90.1799 16.16C90.9799 14.832 92.0759 13.792 93.4679 13.04C94.8759 12.288 96.4519 11.912 98.1959 11.912C99.9399 11.912 101.508 12.288 102.9 13.04C104.292 13.792 105.388 14.832 106.188 16.16C106.988 17.472 107.388 18.952 107.388 20.6C107.388 22.248 106.988 23.736 106.188 25.064C105.388 26.376 104.292 27.408 102.9 28.16C101.508 28.912 99.9399 29.288 98.1959 29.288ZM98.1959 25.976C99.1879 25.976 100.084 25.752 100.884 25.304C101.684 24.84 102.308 24.2 102.756 23.384C103.22 22.568 103.452 21.64 103.452 20.6C103.452 19.56 103.22 18.632 102.756 17.816C102.308 17 101.684 16.368 100.884 15.92C100.084 15.456 99.1879 15.224 98.1959 15.224C97.2039 15.224 96.3079 15.456 95.5079 15.92C94.7079 16.368 94.0759 17 93.6119 17.816C93.1639 18.632 92.9399 19.56 92.9399 20.6C92.9399 21.64 93.1639 22.568 93.6119 23.384C94.0759 24.2 94.7079 24.84 95.5079 25.304C96.3079 25.752 97.2039 25.976 98.1959 25.976ZM122.652 20.24C123.628 20.576 124.388 21.104 124.932 21.824C125.492 22.528 125.772 23.352 125.772 24.296C125.772 25.32 125.436 26.208 124.764 26.96C124.092 27.712 123.18 28.288 122.028 28.688C120.892 29.088 119.644 29.288 118.284 29.288C117.132 29.288 115.98 29.144 114.828 28.856C113.692 28.568 112.612 28.128 111.588 27.536L112.788 24.752C113.524 25.2 114.332 25.544 115.212 25.784C116.108 26.008 116.98 26.12 117.828 26.12C118.98 26.12 119.932 25.912 120.684 25.496C121.452 25.08 121.836 24.496 121.836 23.744C121.836 23.12 121.572 22.648 121.044 22.328C120.532 22.008 119.828 21.848 118.932 21.848H114.828V18.92H118.644C119.428 18.92 120.036 18.76 120.468 18.44C120.916 18.12 121.14 17.68 121.14 17.12C121.14 16.464 120.82 15.952 120.18 15.584C119.556 15.216 118.748 15.032 117.756 15.032C117.02 15.032 116.26 15.136 115.476 15.344C114.692 15.536 113.948 15.832 113.244 16.232L112.068 13.208C113.844 12.296 115.764 11.84 117.828 11.84C119.14 11.84 120.348 12.032 121.452 12.416C122.556 12.8 123.436 13.36 124.092 14.096C124.748 14.832 125.076 15.688 125.076 16.664C125.076 17.464 124.86 18.176 124.428 18.8C123.996 19.424 123.404 19.904 122.652 20.24ZM138.186 25.4H130.386L128.898 29H124.914L132.402 12.2H136.242L143.754 29H139.674L138.186 25.4ZM136.962 22.448L134.298 16.016L131.634 22.448H136.962ZM159.254 12.2V29H155.39V15.368H147.806V29H143.942V12.2H159.254ZM172.754 25.4H164.954L163.466 29H159.482L166.97 12.2H170.81L178.322 29H174.242L172.754 25.4ZM171.53 22.448L168.866 16.016L166.202 22.448H171.53ZM193.918 12.2V29H190.03V22.112H182.398V29H178.51V12.2H182.398V18.824H190.03V12.2H193.918ZM204.223 17.72C206.271 17.72 207.839 18.176 208.927 19.088C210.031 20 210.583 21.352 210.583 23.144C210.583 25.048 209.975 26.504 208.759 27.512C207.559 28.504 205.863 29 203.671 29H196.087V12.2H199.951V17.72H204.223ZM203.455 26.12C204.463 26.12 205.247 25.872 205.807 25.376C206.383 24.88 206.671 24.16 206.671 23.216C206.671 21.472 205.599 20.6 203.455 20.6H199.951V26.12H203.455Z" fill="#2867B1"/>
<path d="M3.80762 48.5549C7.61522 52.3765 13.7435 52.3765 26 52.3765C38.2564 52.3765 44.3849 52.3765 48.1923 48.5549C52 44.7335 52 38.5827 52 26.2815C52 13.9801 52 7.82949 48.1923 4.00797C44.3849 0.186432 38.2564 0.186432 26 0.186432C13.7435 0.186432 7.61522 0.186432 3.80762 4.00797C-3.09944e-07 7.82949 0 13.9801 0 26.2815C0 38.5827 -3.09944e-07 44.7335 3.80762 48.5549Z" fill="#2867B1"/>
<g filter="url(#filter0_d_39_51)">
<path d="M31.0396 8.85698C29.9138 10.8894 27.5489 12.4812 25.4319 12.6375C24.3557 12.7157 23.5556 12.4456 22.9821 11.8061L22.6564 11.4437L19.8667 13.3766L17.077 15.3095L17.2116 15.7074C17.424 16.3043 17.3673 17.2566 17.0629 18.0241C16.6593 19.0758 15.8238 20.1559 14.7759 21.0087C13.7705 21.8188 12.1066 22.5365 11.2216 22.5365C11.0587 22.5365 10.8888 22.565 10.8463 22.5934C10.7613 22.6431 8.31862 28.0084 8.3611 28.0368C8.37526 28.0439 8.61599 28.0936 8.89921 28.1363C9.17534 28.186 9.55768 28.2926 9.74177 28.3779C11.2003 29.0672 11.4057 31.1067 10.2162 33.0396C9.89754 33.5512 8.77176 34.7664 8.22657 35.1928L8 35.3633L9.04082 37.2678C9.61433 38.3124 10.1029 39.1652 10.1241 39.1652C10.1454 39.1652 10.4427 39.0088 10.7826 38.817C12.6589 37.7581 14.6131 37.7155 15.6964 38.7033C16.3478 39.286 16.5743 40.3306 16.277 41.3681C16.1991 41.6595 16.1141 41.9722 16.0858 42.0645L16.0504 42.2209H18.7339H21.4244L21.7926 41.5955C23.0812 39.4068 25.708 37.8505 27.8888 37.9713C28.696 38.0211 29.2341 38.2556 29.7297 38.7814L30.0908 39.1652L32.8663 37.2394C34.3957 36.1806 35.6347 35.2781 35.6276 35.2283C35.6206 35.1857 35.5639 35.0222 35.5073 34.8659C35.3728 34.5035 35.3657 33.6294 35.4931 33.1391C36.01 31.2133 38.0421 29.1525 40.1874 28.4063C40.6264 28.25 41.2636 28.1149 41.7876 28.0652C41.9787 28.0439 42.0425 27.9231 43.1895 25.379C43.848 23.9151 44.3719 22.6787 44.3578 22.636C44.3436 22.5934 44.1312 22.5365 43.8904 22.5152C43.6002 22.4939 43.2886 22.4015 42.9983 22.2523C40.9025 21.2148 41.5468 17.8109 44.2374 15.7003C44.4923 15.4942 44.7118 15.3308 44.7189 15.3237C44.733 15.3166 44.2799 14.4709 43.7134 13.4334C43.1541 12.403 42.6797 11.5289 42.6655 11.4934C42.6585 11.4579 42.3611 11.5929 42.0141 11.7919C41.6601 11.9908 41.0725 12.2609 40.7043 12.3888C40.0883 12.5949 39.9608 12.6162 39.1466 12.6162C38.389 12.6162 38.2049 12.5949 37.858 12.4599C37.3199 12.2467 36.7959 11.7563 36.5481 11.2518C36.3711 10.8894 36.3498 10.7757 36.3569 10.1361C36.3569 9.56049 36.3923 9.32599 36.541 8.90672L36.7251 8.39507H34.0133H31.3015L31.0396 8.85698ZM30.4731 16.5246C31.0679 16.6881 31.8255 17.0647 32.2574 17.4129C32.7743 17.8251 33.2982 18.5997 33.5319 19.2961C33.7018 19.8148 33.723 19.9712 33.723 20.8666C33.7159 21.698 33.6876 21.968 33.5389 22.5365C32.4273 26.6937 28.1578 30.5524 23.5698 31.5402C22.6847 31.7249 20.9713 31.7107 20.2207 31.5046C19.2932 31.2488 18.7834 30.9646 18.1816 30.3605C17.3532 29.5291 17.0133 28.7403 16.9354 27.4754C16.8292 25.5212 17.7072 23.3182 19.4207 21.2787C21.5377 18.7489 24.3698 17.0221 27.3224 16.4607C28.0233 16.3257 29.8784 16.3612 30.4731 16.5246Z" fill="white"/>
</g>
<g filter="url(#filter1_d_39_51)">
<path d="M27.6485 17.7612C25.7155 18.0099 23.7472 18.9408 21.9629 20.4402C19.3786 22.6147 17.9413 25.7415 18.4369 28.0937C18.5431 28.5769 18.8121 29.1951 19.067 29.5078L19.2086 29.6855L19.1591 29.5078C19.1308 29.4083 19.0883 28.9962 19.067 28.5769C19.0387 27.9587 19.0529 27.7241 19.1803 27.2267C19.9238 24.2634 23.7401 20.5824 27.4148 19.2819C29.2274 18.6495 31.0541 18.7134 32.0949 19.4596C32.279 19.5946 32.4277 19.687 32.4277 19.6656C32.4277 19.5022 32.0879 19.019 31.7763 18.7489C31.2524 18.287 30.5443 17.953 29.7797 17.818C29.2061 17.7185 28.1795 17.6901 27.6485 17.7612Z" fill="white"/>
</g>
<path d="M59.199 35.3H60.288V41.24L64.842 35.3H65.854V43H64.776V37.071L60.211 43H59.199V35.3ZM67.5837 37.17H68.6397V39.645H71.9617V37.17H73.0177V43H71.9617V40.558H68.6397V43H67.5837V37.17ZM79.878 40.536H78.745V43H77.689V40.536H76.556L74.95 43H73.696L75.698 39.986L73.85 37.17H74.972L76.545 39.634H77.689V37.17H78.745V39.634H79.889L81.462 37.17H82.595L80.747 39.997L82.749 43H81.495L79.878 40.536ZM83.4159 37.17H84.4719V41.416L88.0469 37.17H89.0039V43H87.9479V38.754L84.3839 43H83.4159V37.17ZM90.5586 37.17H91.6146V39.645H94.9366V37.17H95.9926V43H94.9366V40.558H91.6146V43H90.5586V37.17ZM97.5509 37.17H98.6069V41.416L102.182 37.17H103.139V43H102.083V38.754L98.5189 43H97.5509V37.17ZM107.785 37.115C108.349 37.115 108.855 37.2397 109.303 37.489C109.75 37.7383 110.098 38.0867 110.348 38.534C110.604 38.9813 110.733 39.4983 110.733 40.085C110.733 40.6717 110.604 41.1923 110.348 41.647C110.098 42.0943 109.75 42.4427 109.303 42.692C108.855 42.9413 108.349 43.066 107.785 43.066C107.367 43.066 106.982 42.9853 106.63 42.824C106.285 42.6627 105.992 42.428 105.75 42.12V45.134H104.694V37.17H105.706V38.094C105.94 37.7713 106.237 37.5293 106.597 37.368C106.956 37.1993 107.352 37.115 107.785 37.115ZM107.697 42.142C108.071 42.142 108.404 42.0577 108.698 41.889C108.998 41.713 109.233 41.471 109.402 41.163C109.578 40.8477 109.666 40.4883 109.666 40.085C109.666 39.6817 109.578 39.326 109.402 39.018C109.233 38.7027 108.998 38.4607 108.698 38.292C108.404 38.1233 108.071 38.039 107.697 38.039C107.33 38.039 106.996 38.127 106.696 38.303C106.402 38.4717 106.168 38.71 105.992 39.018C105.823 39.326 105.739 39.6817 105.739 40.085C105.739 40.4883 105.823 40.8477 105.992 41.163C106.16 41.471 106.395 41.713 106.696 41.889C106.996 42.0577 107.33 42.142 107.697 42.142ZM111.772 37.17H112.828V41.416L116.403 37.17H117.36V43H116.304V38.754L112.74 43H111.772V37.17ZM118.915 37.17H119.971V39.645H123.293V37.17H124.349V43H123.293V40.558H119.971V43H118.915V37.17ZM130.197 38.094H126.963V43H125.907V37.17H130.197V38.094ZM133.022 43.066C132.443 43.066 131.922 42.9377 131.46 42.681C130.998 42.4243 130.635 42.0723 130.371 41.625C130.114 41.1703 129.986 40.657 129.986 40.085C129.986 39.513 130.114 39.0033 130.371 38.556C130.635 38.1013 130.998 37.7493 131.46 37.5C131.922 37.2433 132.443 37.115 133.022 37.115C133.601 37.115 134.118 37.2433 134.573 37.5C135.035 37.7493 135.394 38.1013 135.651 38.556C135.915 39.0033 136.047 39.513 136.047 40.085C136.047 40.657 135.915 41.1703 135.651 41.625C135.394 42.0723 135.035 42.4243 134.573 42.681C134.118 42.9377 133.601 43.066 133.022 43.066ZM133.022 42.142C133.396 42.142 133.73 42.0577 134.023 41.889C134.324 41.713 134.558 41.471 134.727 41.163C134.896 40.8477 134.98 40.4883 134.98 40.085C134.98 39.6817 134.896 39.326 134.727 39.018C134.558 38.7027 134.324 38.4607 134.023 38.292C133.73 38.1233 133.396 38.039 133.022 38.039C132.648 38.039 132.311 38.1233 132.01 38.292C131.717 38.4607 131.482 38.7027 131.306 39.018C131.137 39.326 131.053 39.6817 131.053 40.085C131.053 40.4883 131.137 40.8477 131.306 41.163C131.482 41.471 131.717 41.713 132.01 41.889C132.311 42.0577 132.648 42.142 133.022 42.142ZM141.048 39.975C141.803 40.1657 142.181 40.6387 142.181 41.394C142.181 41.9073 141.987 42.3033 141.598 42.582C141.217 42.8607 140.645 43 139.882 43H137.077V37.17H139.783C140.472 37.17 141.011 37.302 141.4 37.566C141.789 37.8227 141.983 38.1893 141.983 38.666C141.983 38.974 141.899 39.2417 141.73 39.469C141.569 39.689 141.341 39.8577 141.048 39.975ZM138.111 39.678H139.695C140.098 39.678 140.403 39.6047 140.608 39.458C140.821 39.3113 140.927 39.0987 140.927 38.82C140.927 38.2627 140.516 37.984 139.695 37.984H138.111V39.678ZM139.805 42.186C140.245 42.186 140.575 42.1163 140.795 41.977C141.015 41.8377 141.125 41.6213 141.125 41.328C141.125 41.0273 141.022 40.8037 140.817 40.657C140.619 40.5103 140.304 40.437 139.871 40.437H138.111V42.186H139.805ZM145.418 37.115C146.225 37.115 146.841 37.313 147.266 37.709C147.699 38.105 147.915 38.6953 147.915 39.48V43H146.914V42.23C146.738 42.5013 146.485 42.7103 146.155 42.857C145.832 42.9963 145.447 43.066 145 43.066C144.347 43.066 143.823 42.9083 143.427 42.593C143.038 42.2777 142.844 41.8633 142.844 41.35C142.844 40.8367 143.031 40.426 143.405 40.118C143.779 39.8027 144.373 39.645 145.187 39.645H146.859V39.436C146.859 38.9813 146.727 38.633 146.463 38.391C146.199 38.149 145.81 38.028 145.297 38.028C144.952 38.028 144.615 38.0867 144.285 38.204C143.955 38.314 143.676 38.4643 143.449 38.655L143.009 37.863C143.31 37.621 143.669 37.4377 144.087 37.313C144.505 37.181 144.949 37.115 145.418 37.115ZM145.176 42.252C145.579 42.252 145.928 42.164 146.221 41.988C146.514 41.8047 146.727 41.548 146.859 41.218V40.404H145.231C144.336 40.404 143.889 40.7047 143.889 41.306C143.889 41.5993 144.003 41.8303 144.23 41.999C144.457 42.1677 144.773 42.252 145.176 42.252ZM153.996 37.17V43H153.05V41.152H151.356H151.235L149.959 43H148.826L150.245 41.009C149.805 40.877 149.468 40.6607 149.233 40.36C148.999 40.052 148.881 39.6707 148.881 39.216C148.881 38.5487 149.109 38.0427 149.563 37.698C150.018 37.346 150.645 37.17 151.444 37.17H153.996ZM149.959 39.249C149.959 39.6377 150.08 39.9273 150.322 40.118C150.572 40.3013 150.942 40.393 151.433 40.393H153.05V38.094H151.477C150.465 38.094 149.959 38.479 149.959 39.249ZM160.287 40.536H159.077V43H158.021V37.17H159.077V39.634H160.309L162.201 37.17H163.334L161.123 39.975L163.488 43H162.245L160.287 40.536ZM166.404 43.066C165.824 43.066 165.304 42.9377 164.842 42.681C164.38 42.4243 164.017 42.0723 163.753 41.625C163.496 41.1703 163.368 40.657 163.368 40.085C163.368 39.513 163.496 39.0033 163.753 38.556C164.017 38.1013 164.38 37.7493 164.842 37.5C165.304 37.2433 165.824 37.115 166.404 37.115C166.983 37.115 167.5 37.2433 167.955 37.5C168.417 37.7493 168.776 38.1013 169.033 38.556C169.297 39.0033 169.429 39.513 169.429 40.085C169.429 40.657 169.297 41.1703 169.033 41.625C168.776 42.0723 168.417 42.4243 167.955 42.681C167.5 42.9377 166.983 43.066 166.404 43.066ZM166.404 42.142C166.778 42.142 167.111 42.0577 167.405 41.889C167.705 41.713 167.94 41.471 168.109 41.163C168.277 40.8477 168.362 40.4883 168.362 40.085C168.362 39.6817 168.277 39.326 168.109 39.018C167.94 38.7027 167.705 38.4607 167.405 38.292C167.111 38.1233 166.778 38.039 166.404 38.039C166.03 38.039 165.692 38.1233 165.392 38.292C165.098 38.4607 164.864 38.7027 164.688 39.018C164.519 39.326 164.435 39.6817 164.435 40.085C164.435 40.4883 164.519 40.8477 164.688 41.163C164.864 41.471 165.098 41.713 165.392 41.889C165.692 42.0577 166.03 42.142 166.404 42.142ZM177.18 37.17V43H176.223V38.743L174.045 42.34H173.583L171.427 38.732V43H170.459V37.17H171.548L173.836 41.108L176.19 37.17H177.18ZM184.141 37.17V43H183.085V38.094H179.796V43H178.74V37.17H184.141ZM187.768 37.115C188.575 37.115 189.191 37.313 189.616 37.709C190.049 38.105 190.265 38.6953 190.265 39.48V43H189.264V42.23C189.088 42.5013 188.835 42.7103 188.505 42.857C188.183 42.9963 187.798 43.066 187.35 43.066C186.698 43.066 186.173 42.9083 185.777 42.593C185.389 42.2777 185.194 41.8633 185.194 41.35C185.194 40.8367 185.381 40.426 185.755 40.118C186.129 39.8027 186.723 39.645 187.537 39.645H189.209V39.436C189.209 38.9813 189.077 38.633 188.813 38.391C188.549 38.149 188.161 38.028 187.647 38.028C187.303 38.028 186.965 38.0867 186.635 38.204C186.305 38.314 186.027 38.4643 185.799 38.655L185.359 37.863C185.66 37.621 186.019 37.4377 186.437 37.313C186.855 37.181 187.299 37.115 187.768 37.115ZM187.526 42.252C187.93 42.252 188.278 42.164 188.571 41.988C188.865 41.8047 189.077 41.548 189.209 41.218V40.404H187.581C186.687 40.404 186.239 40.7047 186.239 41.306C186.239 41.5993 186.353 41.8303 186.58 41.999C186.808 42.1677 187.123 42.252 187.526 42.252ZM191.672 37.17H192.728V39.645H196.05V37.17H197.106V43H196.05V40.558H192.728V43H191.672V37.17ZM198.664 37.17H199.72V41.416L203.295 37.17H204.252V43H203.196V38.754L199.632 43H198.664V37.17ZM210.482 37.17V43H209.536V41.152H207.842H207.721L206.445 43H205.312L206.731 41.009C206.291 40.877 205.953 40.6607 205.719 40.36C205.484 40.052 205.367 39.6707 205.367 39.216C205.367 38.5487 205.594 38.0427 206.049 37.698C206.503 37.346 207.13 37.17 207.93 37.17H210.482ZM206.445 39.249C206.445 39.6377 206.566 39.9273 206.808 40.118C207.057 40.3013 207.427 40.393 207.919 40.393H209.536V38.094H207.963C206.951 38.094 206.445 38.479 206.445 39.249Z" fill="#8B8D8F"/>
<defs>
<filter id="filter0_d_39_51" x="6.04454" y="8.39507" width="40.6302" height="37.7367" filterUnits="userSpaceOnUse" color-interpolation-filters="sRGB">
<feFlood flood-opacity="0" result="BackgroundImageFix"/>
<feColorMatrix in="SourceAlpha" type="matrix" values="0 0 0 0 0 0 0 0 0 0 0 0 0 0 0 0 0 0 127 0" result="hardAlpha"/>
<feOffset dy="1.95546"/>
<feGaussianBlur stdDeviation="0.977729"/>
<feComposite in2="hardAlpha" operator="out"/>
<feColorMatrix type="matrix" values="0 0 0 0 0 0 0 0 0 0 0 0 0 0 0 0 0 0 0.25 0"/>
<feBlend mode="normal" in2="BackgroundImageFix" result="effect1_dropShadow_39_51"/>
<feBlend mode="normal" in="SourceGraphic" in2="effect1_dropShadow_39_51" result="shape"/>
</filter>
<filter id="filter1_d_39_51" x="16.3844" y="17.7217" width="17.9988" height="15.8747" filterUnits="userSpaceOnUse" color-interpolation-filters="sRGB">
<feFlood flood-opacity="0" result="BackgroundImageFix"/>
<feColorMatrix in="SourceAlpha" type="matrix" values="0 0 0 0 0 0 0 0 0 0 0 0 0 0 0 0 0 0 127 0" result="hardAlpha"/>
<feOffset dy="1.95546"/>
<feGaussianBlur stdDeviation="0.977729"/>
<feComposite in2="hardAlpha" operator="out"/>
<feColorMatrix type="matrix" values="0 0 0 0 0 0 0 0 0 0 0 0 0 0 0 0 0 0 0.25 0"/>
<feBlend mode="normal" in2="BackgroundImageFix" result="effect1_dropShadow_39_51"/>
<feBlend mode="normal" in="SourceGraphic" in2="effect1_dropShadow_39_51" result="shape"/>
</filter>
</defs>
</svg>
