<svg width="22" height="21" viewBox="0 0 22 21" fill="none" xmlns="http://www.w3.org/2000/svg">
<path d="M3.32537 1.87066L3.26006 1.85116C2.58896 1.59127 2.77403 0.737475 3.36688 0.52635L3.41789 0.508425C3.45886 0.494695 3.49906 0.487371 3.54223 0.485134L6.90569 0.483283C7.38566 0.483574 7.97909 0.435281 8.15641 1.02114L8.16986 1.06475C8.20218 1.17074 8.19989 1.27981 8.1665 1.38493L8.15982 1.40722C8.00652 1.90585 7.58298 1.92235 7.14967 1.92078L6.58381 1.9175C6.49062 1.85488 5.92131 1.91423 5.74945 1.91562H5.30995C5.12322 1.91468 5.08005 1.89886 4.92227 1.88339L4.90604 1.88232C4.86144 1.83772 4.33288 1.88205 4.25435 1.88241L3.86716 1.88232C3.77016 1.88173 3.67267 1.88147 3.57535 1.88232L3.52632 1.86833C3.47768 1.87308 3.45522 1.86627 3.41027 1.85735L3.32537 1.87066Z" fill="#99BCF7"/>
<path d="M2.79732 14.593C1.34808 14.3273 1.31326 12.1469 3.0222 12.131L12.9132 12.1286C13.2481 12.1283 13.5959 12.1543 13.9234 12.0771L13.9434 12.1001C13.8733 12.2651 13.7331 12.4329 13.6295 12.5794L12.7937 13.6976C12.6774 13.8515 12.5391 14.0065 12.44 14.1709L12.2336 14.4378C12.0646 14.6604 12.056 14.5929 11.7702 14.5929L2.79732 14.593Z" fill="#7294F7"/>
<path d="M1.56401 18.6963L12.3719 18.7054C12.521 18.7468 12.6728 18.7412 12.8226 18.7414L16.4747 18.7413C16.6178 18.7414 16.7617 18.736 16.9038 18.7546L16.937 18.7589C17.1641 18.8555 17.3086 19.0847 17.5769 19.075L17.5906 19.0764C17.6114 19.0757 17.6334 19.0753 17.6497 19.0621L17.6671 19.0131C17.661 18.961 17.6522 18.8422 17.6811 18.7988C17.6867 18.7904 18.1731 18.7523 18.2466 18.75L20.4711 18.7409C20.6742 18.7404 20.9275 18.7476 21.1254 18.7153L21.1411 18.7119C21.1879 18.7319 21.3385 18.7577 21.3868 18.7307C22.0694 18.862 22.0145 19.9241 21.3608 20.0541C21.165 20.093 20.9415 20.0727 20.7417 20.0727L1.61619 20.0714C0.723129 20.042 0.686665 18.7906 1.56401 18.6963Z" fill="#7294F7"/>
<path d="M3.32515 1.87818L3.41005 1.85742C3.45501 1.86634 3.47746 1.87316 3.5261 1.8684L3.57513 1.88239C3.67245 1.88154 3.76994 1.88181 3.86694 1.88239L4.25413 1.88248C4.33266 1.88212 4.86123 1.83779 4.90583 1.88239L4.92205 1.88346C5.07983 1.89893 5.123 1.91475 5.30974 1.91569H5.74923C5.92109 1.9143 6.4904 1.85496 6.58359 1.91843L6.24346 1.91713L6.25037 2.9756C6.58691 3.1683 6.93559 3.36351 7.12215 3.72416C7.15644 3.79037 7.1719 3.85371 7.21839 3.91435L16.4924 3.90512C17.6704 3.90494 18.6956 4.60872 19.0552 5.75178C19.2138 6.25578 19.2303 6.80272 19.3002 7.32416L20.7463 18.1874C20.867 19.0609 20.6947 18.5148 21.3863 18.7279C21.338 18.7581 21.1873 18.7323 21.1406 18.7123L21.1249 18.7157C20.927 18.748 20.6737 18.7408 20.4706 18.7413L18.246 18.7504C18.1725 18.7527 17.6861 18.7908 17.6805 18.7992C17.6517 18.8426 17.6605 18.9614 17.6666 19.0135L17.6491 19.0625C17.6329 19.0757 17.6109 19.0761 17.5901 19.0768L17.5764 19.0754C17.3081 19.0851 17.1636 18.856 16.9364 18.7593L16.9032 18.755C16.7612 18.7365 16.6173 18.7418 16.4741 18.7417L12.8221 18.7418C12.6723 18.7416 12.5205 18.7472 12.3714 18.7327L1.56348 18.7053L2.16291 18.6873C2.2071 18.2571 2.29447 17.8291 2.36668 17.4025L2.71738 15.1147C2.73948 14.9489 2.74786 14.7592 2.79645 14.6L11.7694 14.5935C12.0551 14.5935 12.0637 14.661 12.2328 14.4385L12.4392 14.1716C12.5382 14.0072 12.6766 13.8522 12.7928 13.6983L13.6287 12.58C13.7322 12.4335 13.8724 12.2657 13.9425 12.1007L13.9226 12.0778L13.9405 12.0673C14.0425 11.9975 14.1345 11.8538 14.2144 11.7576C15.2624 10.4952 15.4829 9.16423 14.4833 7.75452C13.8769 6.89928 12.9557 6.70295 11.9888 6.70182L7.26541 6.70644L7.26474 7.5767C7.26335 8.19796 7.17132 8.7441 6.59027 9.13115C6.27888 9.3386 6.24521 9.19247 6.24423 9.56285L6.24279 10.1651C6.24167 10.3209 6.25902 10.519 6.19003 10.6615L6.17686 10.686C6.03588 10.9554 5.75824 11.1218 5.45008 11.0316L5.42413 11.0237C4.93989 10.879 4.9398 10.5519 4.9394 10.1063L4.9398 9.34595C4.88772 9.3027 4.84114 9.29346 4.78202 9.26513C4.27842 9.02385 3.90625 8.44611 3.88195 7.88711L3.8798 4.93809C3.88025 4.70545 3.84905 4.40872 3.91481 4.1859C4.0483 3.7338 4.28954 3.1752 4.79005 3.0354C4.83639 3.02244 4.87965 3.0064 4.92438 2.9886C4.9831 2.69254 4.91389 2.26079 4.93779 1.94102L4.93994 1.91345C4.80892 1.9048 4.67458 1.91309 4.54306 1.91462L3.87541 1.91713C3.68769 1.91677 3.50987 1.91731 3.32515 1.87818Z" fill="url(#paint0_linear_17_576)"/>
<path d="M16.9366 18.7592C17.1701 18.743 17.419 18.7279 17.6505 18.7557C17.6458 18.8445 17.6761 19.0363 17.5766 19.0753C17.3083 19.0849 17.1638 18.8558 16.9366 18.7592Z" fill="white"/>
<path d="M16.6905 5.67773C17.3676 5.70185 17.9524 6.26161 17.7517 6.95033L17.7444 6.97422C17.6145 7.41198 17.2286 7.69356 16.7808 7.75461C15.5558 7.87653 15.1908 5.76371 16.6905 5.67773Z" fill="white"/>
<path d="M16.6663 6.15149C17.4165 6.11249 17.5265 7.12404 16.7957 7.27317C15.9773 7.27079 15.9121 6.32814 16.6663 6.15149Z" fill="#7294F7"/>
<defs>
<linearGradient id="paint0_linear_17_576" x1="19.3484" y1="6.10803" x2="0.716985" y2="17.2417" gradientUnits="userSpaceOnUse">
<stop stop-color="#7D9DFB"/>
<stop offset="1" stop-color="#B4EBF2"/>
</linearGradient>
</defs>
</svg>
