<svg width="22" height="21" viewBox="0 0 22 21" fill="none" xmlns="http://www.w3.org/2000/svg">
<g id="Group 1000005099">
<path id="Vector" d="M16.7983 2.24367C17.0577 2.19539 16.9973 2.30055 16.9964 1.96903L16.9953 1.22387C16.9953 1.10639 16.9758 0.943679 17.014 0.833232C17.1113 0.552051 17.4046 0.347766 17.7033 0.449288C18.1107 0.587776 18.0714 1.02024 18.0721 1.36189L18.0724 2.21601L16.7983 2.24367Z" fill="#88ABF7"/>
<path id="Vector_2" d="M18.1684 6.15654L19.2064 6.1543L19.1274 16.0449C19.1242 18.4962 16.0368 18.5402 15.6752 16.5155C15.6452 16.3477 15.6542 16.164 15.6535 15.994L15.6528 12.3776C15.6526 11.1306 15.7212 10.1916 14.0573 10.1897L13.3227 10.1899C13.2997 9.93346 13.3219 9.64882 13.3247 9.39024L14.772 9.40193C15.5473 9.45917 16.2118 10.0551 16.4199 10.7985C16.5091 11.1172 16.4908 11.4749 16.4912 11.803L16.4905 16.0318C16.4908 16.1805 16.4821 16.3387 16.5116 16.4851C16.7044 17.444 18.1362 17.3057 18.2781 16.4039C18.3201 16.137 18.2939 15.8337 18.2938 15.5632L18.291 10.3099C18.2885 10.1744 18.2676 10.0429 18.2612 9.90898L18.2659 6.17599C18.2334 6.15797 18.2048 6.15932 18.1684 6.15654Z" fill="url(#paint0_linear_17_578)"/>
<path id="Vector_3" d="M18.0712 2.21138L19.4828 2.20941L19.4783 1.24973C19.478 0.841245 19.4681 0.405174 20.0076 0.403323C20.2008 0.402659 20.3415 0.532183 20.4314 0.691353L20.4421 0.709686C20.5402 0.8806 20.5108 1.95293 20.4896 2.18843C20.5859 2.19623 20.6862 2.1982 20.7784 2.22855L20.7944 2.23366C21.3083 2.40695 21.2833 2.93668 21.2835 3.35345C21.2836 3.78291 21.3226 4.23178 21.1953 4.64654C20.9313 5.5068 20.1273 6.17817 19.2067 6.15451L18.1687 6.15397C17.2001 6.158 16.5635 5.40684 16.2872 4.55666L16.2721 4.50839C16.1809 4.15997 16.2201 3.74598 16.2197 3.38649C16.219 2.87074 16.1674 2.3576 16.7991 2.24599L18.0712 2.21138Z" fill="#7294F7"/>
<path id="Vector_4" d="M13.324 10.1894L13.3543 17.3447C13.5507 17.3454 13.7427 17.3577 13.9315 17.415C14.9122 17.7131 15.3662 19.0139 14.685 19.8119C14.1695 20.4158 13.6033 20.3219 12.8987 20.322L2.40294 20.3214C2.23897 20.3213 2.06129 20.3338 1.89898 20.3131C0.246133 20.1032 0.446761 17.3583 2.37362 17.2897C2.38972 17.2533 2.3717 15.3946 2.3717 15.2236L2.37188 2.56663C2.37201 2.2833 2.37147 2.02821 2.45834 1.75483C2.73002 0.899539 3.5503 0.236488 4.45162 0.192789L10.6081 0.186213C10.921 0.186406 11.2746 0.155625 11.5815 0.217384C12.5042 0.403045 13.1257 1.16965 13.2978 2.07088C13.3484 2.33601 13.3244 2.63692 13.3245 2.90725L13.3249 9.38984C13.3212 9.64843 13.2991 9.93306 13.324 10.1894ZM5.92445 1.95896C4.81474 2.0001 4.18855 2.52853 4.18443 3.72238L4.18416 4.31325C4.18438 4.68107 4.16179 5.06584 4.19227 5.43183C4.25341 6.16654 4.86701 6.84487 5.60929 6.92299C5.78334 6.94133 5.96524 6.93424 6.14019 6.93429L9.80608 6.93035C10.2195 6.91708 10.5733 6.8537 10.919 6.60985L10.9412 6.59448C11.4943 6.20805 11.5884 5.69082 11.5892 5.07745L11.5895 4.35377C11.5892 3.65362 11.6927 3.10784 11.2173 2.52235L11.2043 2.50599C10.7879 1.99195 10.2531 1.96052 9.64919 1.95936L5.92445 1.95896ZM9.20176 8.65132C8.86643 8.74213 8.70125 9.03102 8.50479 9.28934L7.64014 10.4549L6.07192 12.3767C5.80051 12.7031 5.43103 13.0619 5.65878 13.5127L5.66631 13.5278C5.79339 13.7758 5.99334 13.8317 6.24499 13.8349L8.00092 13.8371C7.88689 14.0289 7.75695 14.2064 7.63166 14.3905L6.20187 16.3232C5.92678 16.674 5.54336 17.2716 6.09205 17.5974C6.17789 17.6484 6.2899 17.6701 6.38807 17.68C6.94115 17.6791 7.21937 17.0796 7.5149 16.6911L9.64386 13.8283C9.93432 13.4623 10.5213 12.9359 10.1851 12.4309L10.1754 12.4161C10.1169 12.3307 10.0336 12.2658 9.94266 12.219L9.92549 12.2098C9.76022 12.1245 9.46376 12.1513 9.28159 12.151L8.42066 12.1543C8.31738 12.1554 8.19573 12.1692 8.0947 12.1535C8.22558 11.9174 8.30555 11.7637 8.4662 11.5284L9.48316 10.1415C9.72396 9.82024 10.0816 9.45824 9.89976 9.0234C9.77649 8.72864 9.49536 8.63025 9.20176 8.65132Z" fill="url(#paint1_linear_17_578)"/>
</g>
<defs>
<linearGradient id="paint0_linear_17_578" x1="15.5282" y1="7.47458" x2="19.9652" y2="16.8904" gradientUnits="userSpaceOnUse">
<stop stop-color="#B0E9F4"/>
<stop offset="1" stop-color="#7DA8FF"/>
</linearGradient>
<linearGradient id="paint1_linear_17_578" x1="12.3734" y1="21.0739" x2="2.23822" y2="1.13386" gradientUnits="userSpaceOnUse">
<stop stop-color="#6E8BFC"/>
<stop offset="1" stop-color="#B3E8F4"/>
</linearGradient>
</defs>
</svg>
