<svg width="29" height="29" viewBox="0 0 29 29" fill="none" xmlns="http://www.w3.org/2000/svg">
<g id="industrial-greenhouses">
<path id="Vector" d="M23.8862 18.86C23.8969 19.0486 23.8869 19.2443 23.887 19.4334L23.8849 21.5909C23.8839 22.167 23.8766 22.6209 23.5309 23.1113L23.4911 23.1655C22.9417 23.8477 22.1567 23.7731 21.3809 23.7734L7.17459 23.774C6.90865 23.7737 6.62424 23.7926 6.3605 23.7637C5.58522 23.6788 4.88247 23.0275 4.82464 22.2426L4.81411 13.8002C4.41313 13.7968 4.08251 13.7441 3.76017 13.4708C3.13212 12.9382 3.07887 11.9296 3.62239 11.3183C3.76247 11.1608 3.94265 11.0337 4.12109 10.9229L12.3563 6.26058C13.3425 5.7183 14.0573 5.11246 15.2335 5.63125C15.6293 5.80579 15.9879 6.06161 16.3661 6.27102L24.0907 10.6621C24.796 11.0563 25.5472 11.5297 25.4624 12.4656C25.4007 13.1462 24.7241 13.8664 24.0049 13.7891L23.9907 13.7874L23.889 13.796L23.8862 18.86ZM14.1554 10.5781C12.6065 10.9272 12.8917 13.2899 14.5464 13.0358C16.1036 12.6368 15.8057 10.4397 14.1554 10.5781Z" fill="url(#paint0_linear_1_126)"/>
<path id="Vector_2" d="M23.8858 18.8602C23.8666 18.7707 23.8799 18.6584 23.8801 18.5657L23.8796 15.5458C23.8786 15.455 23.8962 15.2642 23.8598 15.1833C23.7934 15.036 23.8181 14.9046 23.8203 14.742L23.8063 14.728C23.8058 14.7074 23.8055 14.6879 23.8014 14.6676L23.7906 14.623C23.7751 14.5936 23.7766 14.5994 23.7766 14.5669L23.7592 14.4759C23.7235 14.3537 23.7231 14.1614 23.7366 14.0303L23.7393 14.0067C23.7478 13.9153 23.7954 13.9143 23.8306 13.8438L23.857 13.7853C23.9014 13.7787 23.9457 13.7843 23.9902 13.7876L23.8885 13.7962L23.8858 18.8602Z" fill="#A0C3F7"/>
<path id="Vector_3" d="M20.4946 14.0495C20.6749 14.0346 20.9615 14.0139 21.1408 14.0471L21.1644 14.0518C21.8492 14.1625 22.3401 14.7874 22.435 15.4528L22.4375 15.4708C22.4709 15.7089 22.4506 15.9677 22.4499 16.2082L22.4503 19.4964C22.4496 20.6904 22.5827 22.0052 21.1681 22.4722C20.8315 22.5833 20.5044 22.6085 20.1525 22.6092L16.8255 22.6109L14.8594 22.6099C14.8056 22.5108 14.8355 20.7405 14.8356 20.429L14.8338 17.0809C14.8339 16.4665 14.8083 15.8386 14.8511 15.2257C14.8972 15.1678 14.8704 14.9862 14.8955 14.9109L14.9169 14.8474C14.9241 14.8252 14.9305 14.8055 14.9409 14.7844L14.973 14.7214C14.9876 14.6914 15.0021 14.6645 15.0219 14.6374L15.043 14.6093C15.0851 14.5216 15.1903 14.4175 15.2672 14.3641L15.3232 14.3221C15.3451 14.3036 15.3616 14.2882 15.3875 14.2753L15.4073 14.266C15.4667 14.2323 15.5388 14.1877 15.6047 14.1711L15.6174 14.168C15.6671 14.1429 15.77 14.1262 15.8275 14.126L15.9185 14.1071C16.0299 14.063 16.2256 14.0837 16.3479 14.0834L17.2059 14.0835C17.3486 14.082 17.488 14.0545 17.6309 14.0529L20.4946 14.0495Z" fill="url(#paint1_linear_1_126)"/>
<path id="Vector_4" d="M12.1805 14.0441C12.4379 14.0237 12.6955 14.0134 12.9493 14.0646C14.1109 14.299 13.8771 15.4268 13.8758 16.2691L13.8728 22.195C13.8722 22.3253 13.882 22.4748 13.8558 22.6023L7.98015 22.6112C7.11553 22.6268 6.46895 21.8876 6.33752 21.0758C6.30045 20.8467 6.28728 20.5908 6.27984 20.3586L6.26782 16.1011C6.26791 15.9002 6.29615 15.7354 6.29647 15.5629L6.30973 15.542C6.2914 14.9581 6.86246 14.2506 7.41093 14.1121C7.72183 14.0335 8.01847 14.046 8.33618 14.0482L12.1805 14.0441Z" fill="url(#paint2_linear_1_126)"/>
</g>
<defs>
<linearGradient id="paint0_linear_1_126" x1="4.51553" y1="21.8553" x2="24.9233" y2="11.0388" gradientUnits="userSpaceOnUse">
<stop stop-color="#6686FC"/>
<stop offset="1" stop-color="#A4CEF6"/>
</linearGradient>
<linearGradient id="paint1_linear_1_126" x1="14.1718" y1="16.2208" x2="22.633" y2="20.767" gradientUnits="userSpaceOnUse">
<stop stop-color="#8CB4FA"/>
<stop offset="1" stop-color="#BEF9F3"/>
</linearGradient>
<linearGradient id="paint2_linear_1_126" x1="5.94399" y1="17.5095" x2="14.4654" y2="19.0828" gradientUnits="userSpaceOnUse">
<stop stop-color="#7595F8"/>
<stop offset="1" stop-color="#BFFBF5"/>
</linearGradient>
</defs>
</svg>
