<svg width="29" height="29" viewBox="0 0 29 29" fill="none" xmlns="http://www.w3.org/2000/svg">
<g id="industrial-injection-molding-machine">
<path id="Vector" d="M7.49481 20.3448C8.42486 20.2641 9.18123 21.1766 8.9299 22.0717L8.92259 22.0969C8.76252 22.6658 8.26525 23.0778 7.67617 23.1374C6.33961 23.1735 5.74927 21.7455 6.5094 20.837C6.75342 20.5454 7.11923 20.378 7.49481 20.3448Z" fill="#88ABF7"/>
<path id="Vector_2" d="M21.0129 20.3559C21.6406 20.304 22.27 20.6334 22.4787 21.2536L22.5435 21.4985C22.7087 22.2962 22.1226 22.9765 21.3608 23.1262C19.7096 23.381 18.9374 20.7227 21.0129 20.3559Z" fill="#7294F7"/>
<path id="Vector_3" d="M6.42885 16.8593C6.42648 16.5728 6.5211 15.9549 6.31218 15.7866L6.09151 15.6098C5.7859 15.3609 5.0796 14.8329 5.07633 14.4131C5.07104 13.7242 5.61633 13.7096 6.10056 13.7096L9.54659 13.6992C9.89716 13.7088 10.1981 14.0704 10.1902 14.4124C10.184 14.6839 9.99707 14.859 9.81782 15.038L9.32206 15.4893C8.96226 15.7859 8.85612 15.7282 8.85061 16.1885L8.84769 16.6081C8.84783 16.6893 8.85495 16.776 8.8416 16.8561L6.42885 16.8593Z" fill="#7294F7"/>
<path id="Vector_4" d="M17.3685 11.808L17.3771 9.9385C17.3666 9.1361 16.8942 8.97868 16.1703 8.97801L10.0272 8.98074C9.67086 8.98254 9.67274 8.90831 9.51016 9.17707C9.19209 9.70295 8.77339 10.0248 8.18413 10.1583C8.15482 10.5489 8.26549 11.5637 8.0948 11.8635C7.81375 12.3569 7.17631 12.2818 6.98128 11.774C6.91669 11.606 6.95067 11.3327 6.95026 11.1513L6.94914 10.1575C6.88352 10.1358 6.81637 10.1373 6.75017 10.1207C6.13066 9.96526 5.54252 9.41684 5.47811 8.76093C5.43705 8.34281 5.41706 7.00199 5.52347 6.65666C5.69788 6.09071 6.14764 5.58115 6.73712 5.43754C6.81153 5.41943 6.87922 5.42086 6.94905 5.38388L6.95022 3.74208C6.95044 3.65437 6.94578 3.55387 6.96918 3.46889L6.9742 3.45193C7.07783 3.09344 7.3972 2.9207 7.75705 3.02168C8.23048 3.15452 8.17714 3.68939 8.17786 4.04793L8.18947 5.35416C8.21331 5.37882 8.29212 5.38536 8.32815 5.39679C8.8235 5.55377 9.34682 5.99802 9.52518 6.48369C9.57493 6.6191 9.58529 6.75595 9.62796 6.89033L17.2852 6.88603C18.398 6.88387 19.1649 7.46896 19.4281 8.58566C19.487 8.83533 19.4673 9.10298 19.4679 9.35825L19.4694 10.3473L19.4695 11.8077L17.3685 11.808Z" fill="url(#paint0_linear_1_141)"/>
<path id="Vector_5" d="M19.4702 10.3477L19.4777 11.8088L21.5567 11.8104C22.6402 11.8269 23.2201 12.3839 23.5182 13.423L24.5287 16.8978C24.3806 16.8714 24.2227 16.8825 24.0729 16.8827L10.5193 16.8808L14.9888 12.4752C15.7779 11.7485 16.3989 11.7693 17.3689 11.8082L19.4699 11.8081L19.4702 10.3477Z" fill="#B1E3F8"/>
<path id="Vector_6" d="M8.85097 16.1885L8.85183 16.8767L9.95113 16.8825C10.1324 16.8826 10.3412 16.9022 10.5189 16.8709L24.0725 16.8826C24.2223 16.8824 24.3802 16.8713 24.5284 16.8947C24.6627 17.2071 25.2665 16.9778 25.2685 18.3189L25.2684 19.9818C25.2681 20.1907 25.2854 20.4215 25.2367 20.6254C25.1275 21.0817 24.6641 21.5471 24.1954 21.6205C24.0235 21.6474 23.8456 21.6349 23.6722 21.6425L22.9936 21.6622C22.9565 21.2787 22.8881 20.9085 22.6665 20.584C21.784 19.2915 19.5797 19.8424 19.3302 21.242L19.2885 21.6245L9.42445 21.6379C9.27716 19.247 6.12975 19.4067 5.76954 21.2698C5.69254 21.6682 5.88613 21.6311 5.41884 21.6356C5.15958 21.6381 4.86813 21.6626 4.61371 21.6141C3.92057 21.482 3.58123 20.8263 3.57576 20.1602L3.57292 18.7841C3.57236 18.0359 3.50154 17.1916 4.45021 16.9344C4.72976 16.8587 5.05837 16.8839 5.34672 16.8831L6.42949 16.8772L8.84223 16.8561C8.85559 16.776 8.84846 16.6892 8.84833 16.608L8.85097 16.1885Z" fill="url(#paint1_linear_1_141)"/>
</g>
<defs>
<linearGradient id="paint0_linear_1_141" x1="18.874" y1="12.8348" x2="5.7057" y2="5.84128" gradientUnits="userSpaceOnUse">
<stop stop-color="#688AFD"/>
<stop offset="1" stop-color="#9DC3F5"/>
</linearGradient>
<linearGradient id="paint1_linear_1_141" x1="22.7737" y1="24.5215" x2="6.06071" y2="13.8794" gradientUnits="userSpaceOnUse">
<stop stop-color="#6C8DFA"/>
<stop offset="1" stop-color="#A1C5F6"/>
</linearGradient>
</defs>
</svg>
