<svg width="29" height="29" viewBox="0 0 29 29" fill="none" xmlns="http://www.w3.org/2000/svg">
<path d="M13.6171 5.11483L13.6144 5.06656C13.5783 5.03361 13.4579 5.04809 13.4059 5.04787L12.9822 5.0458C12.8953 5.04464 12.7906 5.04796 12.7083 5.01748L12.6919 5.01107C11.686 4.63813 11.9281 3.43897 12.903 3.38729L15.4334 3.38037C15.9547 3.38023 16.6258 3.44516 16.656 4.14332C16.6671 4.39718 16.6171 4.56968 16.44 4.75889C16.0922 5.13048 15.6341 5.01931 15.1845 5.03917L15.1711 5.03984L15.1143 5.09659L13.8335 5.0865C13.7639 5.08529 13.6763 5.07485 13.6171 5.11483Z" fill="url(#paint0_linear_1_36)"/>
<path d="M13.8333 5.08614C13.7849 5.07561 13.738 5.06804 13.689 5.06696L13.6995 5.05611C13.7906 5.05643 13.958 5.10035 14.035 5.05692C14.107 5.01635 14.2109 4.9939 14.2744 5.06266L14.2389 5.07422C14.2846 5.09067 14.3659 5.08157 14.4157 5.08229L14.8868 5.08588C14.9598 5.08614 15.0426 5.07884 15.1141 5.08843L13.8333 5.08614Z" fill="#4567FE"/>
<path d="M6.15167 10.7849C5.4564 10.7868 4.9425 10.8367 4.46766 10.1991C4.23048 9.88062 4.13481 9.50831 4.19718 9.11314L4.20098 9.0906C4.29351 8.51479 4.76289 8.03391 5.33108 7.91213C5.50055 7.87582 5.70805 7.89545 5.88183 7.89532L10.5713 7.89505L11.3602 7.89707L11.36 10.8001L7.91545 10.7849L6.50349 10.7877C6.44813 10.7879 6.18412 10.8065 6.15167 10.7849Z" fill="#7294F7"/>
<path d="M17.3531 7.89962L22.6692 7.89307C22.8999 7.89101 23.1564 7.85883 23.3828 7.90325C24.8597 8.19304 24.9304 10.339 23.3918 10.7414C23.1369 10.8081 22.8303 10.8022 22.5672 10.7855L20.8534 10.7862L20.0762 10.7855L17.361 10.781C17.3484 10.6789 17.3557 10.5691 17.3555 10.4661L17.3531 7.89962Z" fill="url(#paint1_linear_1_36)"/>
<path d="M15.1708 5.03223L15.169 6.14507L15.8425 6.13987C16.4795 6.12988 17.0586 6.20814 17.299 6.87786L17.3072 6.9C17.3492 7.02049 17.3492 7.16715 17.3524 7.29423L17.3549 7.89944L17.3563 10.4659C17.3565 10.5689 17.3492 10.6788 17.3618 10.7809L20.077 10.785L17.36 10.7856L17.3564 11.4232C17.356 11.6381 17.3758 11.858 17.2339 12.0372L17.2206 12.0543C17.1593 12.1314 17.0782 12.1968 16.9911 12.2422L16.9758 12.2503C16.9024 12.288 16.7957 12.3173 16.7133 12.3121C16.6028 12.2872 16.4575 12.318 16.3426 12.321L12.5617 12.3249C12.3908 12.3251 12.2172 12.319 12.0472 12.3388L11.9554 12.3393C11.7944 12.316 11.6075 12.168 11.5089 12.0413L11.497 12.0256C11.347 11.8319 11.3592 11.6697 11.3592 11.435L11.3605 10.8005L11.3608 7.89747L10.5719 7.89581L11.3617 7.89236C11.3597 7.51149 11.3135 7.03931 11.5166 6.70017L11.5278 6.68171C11.8212 6.18905 12.3326 6.14485 12.8404 6.14489L13.6064 6.14583L13.614 5.1403L13.6168 5.1152C13.676 5.07521 13.7636 5.08566 13.8332 5.08404L15.114 5.08696L15.1708 5.03223Z" fill="#B1E3F8"/>
<path d="M15.1716 5.03174L15.1698 6.14458L13.6152 6.14571L13.615 5.13981L13.6176 5.11471C13.6768 5.07472 13.7644 5.08517 13.834 5.08355L15.1148 5.08647L15.1716 5.03174Z" fill="#7294F7"/>
<path d="M14.2948 8.04481L14.3017 8.04288C15.6696 7.87103 15.9857 10.0429 14.4625 10.1919C13.0485 10.294 12.7999 8.22823 14.2948 8.04481Z" fill="#7294F7"/>
<path d="M6.21295 18.5971C6.5434 18.5068 7.16681 18.4829 7.5059 18.4831L21.9838 18.4829C22.1822 18.4872 22.3911 18.491 22.5819 18.5497L22.5934 18.5594C22.674 18.6274 22.7658 18.678 22.8493 18.742C23.4123 19.174 23.5512 19.75 23.6602 20.4051L23.9941 22.5584C24.1128 23.3344 24.3024 23.8822 23.2372 23.8839L21.7881 23.8838C21.0262 23.8827 21.163 23.7617 20.6082 23.2651C19.9531 22.6787 19.6578 22.6752 18.856 22.6768L14.3037 22.6773L9.8922 22.6764C8.93063 22.6764 8.66635 22.747 7.91909 23.4682C7.48721 23.885 7.52867 23.8887 6.90419 23.8876L5.51361 23.89C4.6806 23.9083 4.54465 23.6032 4.69015 22.7734L5.14946 19.9599C5.28335 19.1944 5.57883 18.9894 6.13608 18.5926L6.14666 18.5849L6.21295 18.5971Z" fill="url(#paint2_linear_1_36)"/>
<path d="M13.8945 15.4092L13.894 13.9346L14.8489 13.9355L14.8328 14.6773C14.8317 14.9322 14.8604 15.2351 14.8046 15.484C14.6837 16.0233 13.9204 15.9125 13.8945 15.4092Z" fill="#4567FE"/>
<path d="M12.0462 12.342C12.2167 12.3188 12.3903 12.3248 12.5612 12.3246L16.3422 12.3207C16.457 12.3177 16.6023 12.2869 16.7128 12.3134C16.7115 12.787 16.7233 13.2186 16.3611 13.5834C16.1166 13.8296 15.8389 13.9441 15.4918 13.9456L14.8482 13.9354L13.8933 13.9345L13.8917 15.4092L13.8882 13.9363C13.1007 13.9384 12.3877 14.0069 12.0834 13.1257C12.0043 12.8968 12.0391 12.5811 12.0462 12.342Z" fill="#7294F7"/>
<path d="M6.14837 10.8034C6.18428 10.8062 6.44829 10.7877 6.50365 10.7875L7.91561 10.7847L7.85223 10.7999C7.82677 11.2193 7.8477 11.6532 7.84774 12.0743L7.84909 16.1716C7.84927 16.4093 7.82582 16.6746 7.85451 16.9098L20.8498 16.9082C20.878 16.6635 20.8611 16.4018 20.8614 16.1547L20.8596 10.7896L22.5676 10.7863L22.5696 18.5499C22.3913 18.4912 22.1824 18.4874 21.984 18.4831L7.50609 18.4833C7.167 18.4831 6.54359 18.507 6.21314 18.5973L6.14685 18.5851L6.14837 10.8034Z" fill="url(#paint3_linear_1_36)"/>
<defs>
<linearGradient id="paint0_linear_1_36" x1="14.2977" y1="5.09412" x2="14.4018" y2="3.32303" gradientUnits="userSpaceOnUse">
<stop stop-color="#6082F6"/>
<stop offset="1" stop-color="#88B0FF"/>
</linearGradient>
<linearGradient id="paint1_linear_1_36" x1="19.8436" y1="11.6593" x2="21.5054" y2="7.21621" gradientUnits="userSpaceOnUse">
<stop stop-color="#6A8FFA"/>
<stop offset="1" stop-color="#85AFF9"/>
</linearGradient>
<linearGradient id="paint2_linear_1_36" x1="13.3747" y1="26.1423" x2="15.9655" y2="16.7235" gradientUnits="userSpaceOnUse">
<stop stop-color="#647DFA"/>
<stop offset="1" stop-color="#BEF8F3"/>
</linearGradient>
<linearGradient id="paint3_linear_1_36" x1="5.90899" y1="15.3219" x2="22.7863" y2="13.9985" gradientUnits="userSpaceOnUse">
<stop stop-color="#81A3FD"/>
<stop offset="1" stop-color="#A1C6F9"/>
</linearGradient>
</defs>
</svg>
