<svg width="29" height="29" viewBox="0 0 29 29" fill="none" xmlns="http://www.w3.org/2000/svg">
<path d="M18.854 4.54461C19.1028 4.53583 19.3662 4.61516 19.5924 4.71423C19.5194 4.81261 19.4276 4.89787 19.3508 4.99388C18.6495 5.87082 18.6623 7.09326 19.1888 8.04344L12.1186 10.1836L12.0602 9.62152L12.0129 9.35661C11.8038 8.39724 11.2262 7.51564 10.3998 6.9829L17.9021 4.76228C18.2165 4.67196 18.5267 4.57549 18.854 4.54461Z" fill="url(#paint0_linear_1_50)"/>
<path d="M21.4944 4.2947C24.0485 4.11202 25.0085 7.50284 22.8084 8.72452L22.4673 8.89781C22.4062 8.92596 22.337 8.94537 22.2817 8.98338C22.2271 9.07863 22.2635 9.55313 22.2787 9.67949C22.3302 9.70204 22.4441 9.68788 22.5027 9.68801L23.1073 9.69106C24.1175 9.71383 25.091 10.6197 24.8714 11.6427C24.8387 11.7952 24.7722 11.9381 24.7172 12.0833L24.2101 13.4453C24.0226 13.9928 23.6392 14.4477 22.9787 14.2691L22.9521 14.2613C22.1782 14.0426 22.3168 13.5005 22.5424 12.9372L22.8456 12.2109C23.1176 11.5688 22.9891 11.4746 22.3961 11.4734L21.6494 11.4734L20.6059 11.4732C20.4039 11.479 20.2172 11.647 20.2396 11.8579C20.2572 12.0228 20.3585 12.2011 20.4252 12.3508L20.6517 12.91C20.7346 13.1208 20.8462 13.3674 20.8543 13.5952C20.8802 14.3237 19.5572 14.639 19.1492 13.7688C19.0059 13.463 18.9245 13.1171 18.8115 12.7984L18.5985 12.2104C18.297 11.4251 18.2508 10.9103 18.9135 10.2428C19.3495 9.80361 19.8052 9.69267 20.3985 9.68918L21.0558 9.68653L21.0609 9.00704C21.0237 8.96083 20.928 8.95119 20.872 8.9342C19.7105 8.58175 19.0289 7.39221 19.2214 6.2133C19.3931 5.16186 20.4436 4.35676 21.4944 4.2947Z" fill="url(#paint1_linear_1_50)"/>
<path d="M6.40048 21.3967L18.6025 21.3936C19.2724 21.3933 19.7681 21.4281 20.08 22.1785C20.1167 22.2667 20.1562 22.3874 20.165 22.4839L20.1672 22.5101C20.1884 22.7465 20.2231 23.7496 20.1271 23.93L20.1144 23.9528C20.0504 24.0718 19.9737 24.1349 19.8565 24.1978C19.5853 23.9912 19.6158 24.144 19.3767 24.2835C19.1784 24.399 18.351 24.3387 18.1156 24.3314L4.99381 24.33C4.0151 24.3289 4.13569 24.0649 4.13382 23.2792C4.13268 22.7991 4.09293 22.3776 4.41734 21.9782L4.42915 21.9639C4.80631 21.4976 5.20834 21.3996 5.76545 21.3977L6.40048 21.3967Z" fill="url(#paint2_linear_1_50)"/>
<path d="M8.43056 7.05181C8.66037 7.03993 8.9117 7.03012 9.13972 7.05853C10.1386 7.18292 11.0444 7.94748 11.4115 8.86831C11.6947 9.57872 11.6301 10.3222 11.3349 11.0141C11.4434 11.2152 11.5184 11.4347 11.6044 11.6459L13.6795 16.6206C13.7487 16.7858 13.8949 16.917 13.9996 17.0606C14.3334 17.5184 14.5018 18.0964 14.5582 18.6538C14.7789 18.6415 15.024 18.6253 15.2423 18.6624C15.9929 18.7902 16.7382 19.4217 16.9447 20.1509L16.9504 20.1712C17.0255 20.4357 17.0037 20.9484 16.641 20.9829C16.4792 20.9983 16.305 20.9843 16.1419 20.9837L11.675 20.9813L7.37311 20.9826C7.16145 20.9843 6.80699 21.0504 6.62643 20.9094L6.5678 20.8609C6.4631 20.7573 6.42921 20.6262 6.42854 20.4841C6.42428 19.6069 7.45398 18.7788 8.26157 18.6694C8.5034 18.6366 8.75912 18.6505 9.00238 18.6543C9.00188 17.7366 9.10256 17.5507 9.51602 16.6958L7.72503 12.9599C7.4637 12.4027 7.61991 12.6326 7.15957 12.2896C5.7551 11.2434 5.5057 9.38683 6.59089 8.01826C7.02922 7.46549 7.73915 7.1255 8.43056 7.05181ZM11.5088 16.3513C10.0801 16.5731 10.143 18.816 11.8646 18.6548C13.3625 18.4334 13.0073 16.1647 11.5088 16.3513ZM8.62447 8.94213C8.48412 8.9619 8.35893 8.99471 8.2319 9.05863L8.21388 9.06746C7.44766 9.44882 7.44232 10.5657 8.1245 11.0211L8.14521 11.0355C8.37847 11.1937 8.667 11.2163 8.9394 11.1912C10.4651 10.8526 10.0089 8.76593 8.62447 8.94213Z" fill="url(#paint3_linear_1_50)"/>
<path d="M8.72754 9.61536C8.90325 9.612 9.05915 9.6773 9.14629 9.84199L9.15355 9.85656C9.31213 10.1705 9.13414 10.4465 8.81643 10.5254C8.74977 10.524 8.68213 10.5264 8.6192 10.5016L8.60199 10.4945C8.13564 10.3159 8.23582 9.6678 8.72754 9.61536Z" fill="#99BCF7"/>
<path d="M11.5874 17.0107C12.2453 16.9402 12.37 17.8561 11.7436 17.9991C11.0306 17.997 10.9686 17.1683 11.5874 17.0107Z" fill="#99BCF7"/>
<defs>
<linearGradient id="paint0_linear_1_50" x1="19.7035" y1="7.02458" x2="10.5346" y2="7.72729" gradientUnits="userSpaceOnUse">
<stop stop-color="#779AFC"/>
<stop offset="1" stop-color="#97BEF5"/>
</linearGradient>
<linearGradient id="paint1_linear_1_50" x1="24.7085" y1="8.51625" x2="18.0921" y2="10.6102" gradientUnits="userSpaceOnUse">
<stop stop-color="#6D88FA"/>
<stop offset="1" stop-color="#80ADFA"/>
</linearGradient>
<linearGradient id="paint2_linear_1_50" x1="20.1562" y1="23.0506" x2="4.1603" y2="22.6625" gradientUnits="userSpaceOnUse">
<stop stop-color="#6F8DFD"/>
<stop offset="1" stop-color="#B2ECF4"/>
</linearGradient>
<linearGradient id="paint3_linear_1_50" x1="16.8368" y1="13.9336" x2="5.9993" y2="14.1235" gradientUnits="userSpaceOnUse">
<stop stop-color="#758FFD"/>
<stop offset="1" stop-color="#A9DEF4"/>
</linearGradient>
</defs>
</svg>
