<svg width="29" height="29" viewBox="0 0 29 29" fill="none" xmlns="http://www.w3.org/2000/svg">
<path d="M4.68576 11.3608C4.66931 11.0152 4.64623 10.6282 4.72821 10.2891L4.73372 10.2654C4.97762 9.24303 5.98224 8.52035 6.99829 8.4169C7.18476 8.39789 7.37769 8.40583 7.56511 8.40542L8.66287 8.39888C8.69761 7.66258 8.60617 7.21863 9.23843 6.63962L9.32947 6.56611C9.99373 6.07084 10.7864 6.17143 11.5705 6.17138C12.1586 6.17134 12.8094 6.08787 13.3532 6.35606C13.5373 6.44679 14.8366 6.19263 15.0469 6.14086C16.0527 5.8932 17.1817 5.3067 17.873 4.51083C17.9935 4.37206 18.1028 4.20122 18.2637 4.10625C18.6789 3.86116 19.1582 4.15836 19.0696 4.64392L19.0667 4.66113C18.9988 5.03928 17.9689 5.85904 17.6308 6.08926C16.8437 6.62524 15.9741 7.00836 15.0447 7.21352L14.3894 7.33594C14.3233 7.34741 14.2359 7.34526 14.1761 7.37328C14.249 7.72404 14.2795 8.04306 14.2361 8.40471C14.4101 8.42909 14.6137 8.40847 14.7903 8.40802L20.9733 8.40587C21.3825 8.4065 21.7676 8.42102 22.1586 8.5585C23.1554 8.9089 23.9333 9.91469 23.9824 10.9748L23.9864 12.6063C23.9864 12.6364 23.9803 12.6379 24.0005 12.6609C24.9465 12.6761 25.7938 13.4676 25.8424 14.3909C25.863 14.783 25.8453 15.1849 25.8449 15.5784L25.8429 16.2087C25.8285 17.3155 25.0325 17.7655 23.9878 17.8202V18.7562C23.9877 18.9917 24.001 19.2396 23.975 19.4734C23.8615 20.4933 23.1231 21.1923 22.151 21.3964C22.1418 21.5318 22.1008 21.6706 22.0606 21.7998C21.6008 23.2794 19.9223 23.9398 18.6867 23.0275L18.5866 22.948C18.1134 22.5194 17.8811 21.9903 17.8448 21.3663C17.7212 21.3534 17.5921 21.3614 17.4677 21.3614L11.1818 21.3656C11.0671 21.366 10.9241 21.354 10.8131 21.3798L10.7733 21.6145C10.3138 24.0565 6.74297 24.0543 6.48841 21.407L6.44385 21.4035C5.45169 21.285 4.68805 20.3336 4.61332 19.3695C4.58526 19.0069 4.58625 18.413 4.6304 18.06L4.14812 18.0429C4.05387 18.0427 3.95187 18.0491 3.8594 18.029C2.94561 17.8308 2.87871 16.893 2.87565 16.1477L2.87351 13.6638C2.87358 13.264 2.82922 12.7868 2.93291 12.3958L2.94008 12.3693C3.17569 11.4766 3.84615 11.3015 4.68576 11.3608Z" fill="url(#paint0_linear_1_59)"/>
<path d="M18.6799 20.7622L18.6911 20.7445C18.7392 20.6659 18.7942 20.5545 18.8267 20.4938L18.8946 20.4142C18.9176 20.3876 18.8878 20.4219 18.9107 20.3818C18.9828 20.2555 19.3693 20.0137 19.4921 19.9685C20.1031 19.7435 20.8357 19.9033 21.1043 20.5429L21.1475 20.655C21.2556 20.9621 21.1879 21.0295 21.2324 21.3082C21.22 21.5336 21.1385 21.8497 20.9722 22.0195L20.9079 22.0908C20.8715 22.1196 20.84 22.1553 20.8018 22.182L20.6758 22.266C20.6226 22.2986 20.5598 22.3308 20.5007 22.3504L20.3816 22.3921C20.3511 22.409 20.3043 22.42 20.2696 22.4201L20.2065 22.439C20.1606 22.4505 20.128 22.45 20.0805 22.4552L20.0629 22.4588C20.0038 22.4704 19.9307 22.4629 19.8694 22.4625C18.9602 22.4568 18.4859 21.5895 18.6799 20.7622Z" fill="#88ABF7"/>
<path d="M7.67419 20.2992C7.68517 20.2478 7.76236 20.1816 7.80597 20.1539L7.82327 20.1438C7.86214 20.1175 7.89522 20.0855 7.93534 20.0598L7.97586 20.0324C8.01634 20.0054 8.0552 19.9905 8.08945 19.9548L8.11047 19.9547C8.14005 19.9504 8.16789 19.932 8.19447 19.9197L8.31093 19.8812C8.4411 19.8551 8.80015 19.7678 8.92288 19.8496L8.94762 19.8507C9.01092 19.855 8.94144 19.8485 8.99993 19.8637L9.19604 19.9192C9.26588 19.9425 9.35248 19.9899 9.41318 20.0317L9.50771 20.0879C9.5841 20.1663 9.66864 20.2423 9.73184 20.3294L9.77913 20.3933C9.8244 20.4537 9.85242 20.5186 9.88595 20.5853L9.882 20.6043C9.89541 20.675 9.92409 20.7455 9.94086 20.8161C10.0713 21.3657 9.74358 22.2105 9.14575 22.3611L9.11213 22.3781C9.05381 22.3756 9.04373 22.4012 8.99828 22.415L8.97891 22.4202C8.94695 22.4304 8.92687 22.4365 8.89321 22.4356L8.85986 22.4353C8.67822 22.4842 8.4883 22.4202 8.30653 22.4202L8.28556 22.4062C8.24759 22.4095 8.17941 22.3853 8.14588 22.3685L7.99832 22.3011C7.64492 22.1294 7.41209 21.774 7.33746 21.3929C7.25086 20.9509 7.44311 20.6409 7.67419 20.2992Z" fill="#88ABF7"/>
<path d="M10.9722 10.4239C11.5741 10.3982 11.7129 10.8518 11.7115 11.3374L11.7075 15.084C11.7045 15.6245 11.8511 16.4995 11.1776 16.6978C10.6524 16.7661 10.4007 16.4312 10.3956 15.9594L10.3963 11.1274C10.4025 11.005 10.4174 10.8907 10.4769 10.7814L10.5286 10.6919C10.6332 10.536 10.7946 10.4604 10.9722 10.4239Z" fill="white"/>
<path d="M8.17891 10.4238C8.52922 10.3984 8.75671 10.6264 8.91803 10.9212L8.9296 10.9408C8.95815 10.9975 8.96622 11.0841 8.96927 11.1466L8.96985 15.1924C8.96994 15.7436 9.10625 16.5185 8.41796 16.7193C8.03986 16.7798 7.67691 16.4826 7.63357 16.1031C7.61873 15.9731 7.62985 15.8305 7.6298 15.6994L7.62604 11.5568C7.62012 11.3851 7.58305 11.1995 7.61398 11.0287L7.61756 11.0105C7.67449 10.7029 7.88217 10.515 8.17891 10.4238Z" fill="white"/>
<path d="M18.3469 11.1146C19.0875 11.098 19.7867 11.1634 20.3996 11.641C22.4325 13.225 21.5694 16.5031 19.0228 16.8073C17.7038 17.025 16.2374 16.1148 15.9166 14.8032L15.85 14.4635C15.6129 12.8444 16.7064 11.3309 18.3469 11.1146Z" fill="#7294F7"/>
<path d="M18.5407 11.9543C20.1845 11.7107 21.3522 13.9005 20.2583 15.1828C19.8882 15.6167 19.3911 15.8832 18.8234 15.9305C18.6367 15.9526 18.4363 15.9363 18.2504 15.911C16.459 15.6674 16.0444 12.7303 18.0277 12.0637C18.1982 12.0064 18.3625 11.9764 18.5407 11.9543Z" fill="#99BCF7"/>
<defs>
<linearGradient id="paint0_linear_1_59" x1="17.0033" y1="24.3938" x2="11.4371" y2="5.80543" gradientUnits="userSpaceOnUse">
<stop stop-color="#7499F9"/>
<stop offset="1" stop-color="#ABD8F7"/>
</linearGradient>
</defs>
</svg>
