<svg width="29" height="29" viewBox="0 0 29 29" fill="none" xmlns="http://www.w3.org/2000/svg">
<g id="industrial-gearbox 1">
<path id="Vector" d="M14.143 3.84342L15.2901 3.84212C15.7795 3.88166 16.4081 4.33719 16.5123 4.84623C16.5523 5.04217 16.5039 5.24392 16.4612 5.43488C16.3075 6.12303 16.945 6.19547 17.4195 6.41014C17.6868 6.53108 18.0246 6.82737 18.3326 6.78564C18.9847 6.69729 18.7026 5.91662 19.8631 5.78057C20.7509 5.67649 21.1866 6.26119 21.7592 6.81549C22.3787 7.41521 23.1319 7.93926 22.9284 8.92541C22.7714 9.68551 22.0559 9.91852 21.9191 10.3475L22.0996 11.0032C22.2513 11.5058 22.4797 11.9579 23.0588 12.0291C23.206 12.0472 23.3561 12.0417 23.5036 12.0584C24.3141 12.1502 24.7993 12.8096 24.8423 13.5846L24.851 14.3318C24.851 14.6425 24.8692 14.9666 24.8303 15.2749C24.7504 15.9075 24.2702 16.423 23.6478 16.5641C23.2743 16.6488 22.8956 16.5726 22.5735 16.8258C22.2272 17.0979 21.6821 18.1582 22.0672 18.5398L22.3069 18.7749C22.6989 19.1598 23.0279 19.5985 22.951 20.1875L22.9334 20.3103C22.8253 20.9415 22.3514 21.3083 21.922 21.7342C21.6032 22.0503 21.2813 22.4196 20.9135 22.6781C20.3187 23.0962 19.5127 23.0081 19.0016 22.5074C18.3016 21.8216 18.4469 21.8629 17.6332 22.2009C17.3198 22.3311 17.0095 22.3823 16.8064 22.6795L16.7911 22.7024C16.4093 23.2681 16.7839 24.2522 15.6592 24.7447C15.3408 24.8841 15.0466 24.8747 14.7046 24.8758L13.9229 24.875C13.7649 24.8743 13.6001 24.882 13.4435 24.8611C12.804 24.776 12.3142 24.243 12.1801 23.6294C12.1063 23.2919 12.1589 22.9357 11.9285 22.6466C11.694 22.3524 11.2449 22.2544 10.9119 22.1238C10.7926 22.077 10.6377 21.9885 10.5117 21.9773C9.8828 21.921 9.39394 23.4539 8.01247 22.7919C7.63235 22.6097 6.37805 21.3873 6.09001 21.0144C5.71034 20.5229 5.66565 19.7578 6.01918 19.2359C6.10614 19.1076 6.22852 18.999 6.33932 18.8913L6.64943 18.5657C6.70936 18.4992 6.79515 18.4066 6.82487 18.3224C6.86185 18.2176 6.6354 17.6089 6.58999 17.4995C6.47089 17.2126 6.26626 16.8027 5.96185 16.6807L5.9463 16.6747C5.72464 16.5828 5.41983 16.6331 5.18113 16.5981C4.30197 16.4693 3.87584 15.7348 3.87289 14.9115L3.87231 13.7249C3.87789 12.837 4.38932 12.1395 5.32453 12.0647C5.96894 12.0132 6.20723 11.9816 6.50388 11.3637C6.66269 11.0329 6.77207 10.6676 6.83612 10.3069C6.77852 10.2033 6.68538 10.121 6.60128 10.0391C5.9627 9.41656 5.45663 8.87862 5.9519 7.92649C6.04648 7.74463 6.19795 7.60527 6.34098 7.46205L6.91779 6.89869C7.28962 6.53381 7.71322 5.99905 8.23229 5.8418C8.56731 5.74027 9.00337 5.75749 9.31388 5.9302L9.46229 6.02254C9.73165 6.20542 9.88818 6.53753 10.1796 6.6794L10.1934 6.68604C10.5917 6.87982 10.8729 6.61795 11.2311 6.45626C11.7659 6.21475 11.9826 6.26047 12.0786 5.60997C12.1968 4.80952 12.452 3.98332 13.4128 3.85424C13.6464 3.82285 13.9064 3.84378 14.143 3.84342ZM14.2291 8.11843C10.9751 8.20149 8.38196 10.6588 8.13022 13.8664C7.86356 17.2649 10.3281 20.29 13.7629 20.6143C14.0007 20.6368 14.2519 20.6224 14.4911 20.6198C16.5665 20.552 18.5388 19.5023 19.6477 17.7338C21.862 14.2023 20.0349 9.40733 16.0353 8.32574C15.4495 8.16733 14.8339 8.10897 14.2291 8.11843Z" fill="url(#paint0_linear_1_78)"/>
<path id="Vector_2" d="M14.2292 8.11914C14.834 8.10968 15.4496 8.16805 16.0354 8.32646C20.035 9.40805 21.8621 14.203 19.6478 17.7345C18.539 19.503 16.5666 20.5527 14.4912 20.6205C14.252 20.6231 14.0008 20.6375 13.763 20.6151C10.3282 20.2907 7.86367 17.2656 8.13033 13.8671C8.38207 10.6595 10.9752 8.2022 14.2292 8.11914ZM14.117 9.79776C12.1076 9.97118 10.4253 11.2989 9.92616 13.2928C9.32129 15.7088 10.8913 18.3916 13.3825 18.8801L13.9875 18.9657C14.1887 18.9964 14.4099 18.986 14.6132 18.9781C14.8822 18.9497 15.1522 18.9283 15.4157 18.8637C17.5481 18.3412 19.1406 16.274 18.9197 14.0511L18.9 13.9015C18.5819 11.6989 16.9734 9.96549 14.69 9.79776C14.5011 9.7839 14.3066 9.79314 14.117 9.79776Z" fill="url(#paint1_linear_1_78)"/>
<path id="Vector_3" d="M14.2837 12.0528C15.5649 11.9879 16.6119 12.986 16.7325 14.2422C16.8577 15.5452 15.7539 16.6389 14.5006 16.7481C13.8719 16.7745 13.2791 16.5813 12.805 16.1615C11.1937 14.735 12.1689 12.1681 14.2837 12.0528Z" fill="#7FA1F7"/>
</g>
<defs>
<linearGradient id="paint0_linear_1_78" x1="21.1228" y1="22.4575" x2="7.60998" y2="6.2559" gradientUnits="userSpaceOnUse">
<stop stop-color="#7B99FB"/>
<stop offset="1" stop-color="#B6ECF4"/>
</linearGradient>
<linearGradient id="paint1_linear_1_78" x1="18.693" y1="18.8521" x2="10.0163" y2="9.87873" gradientUnits="userSpaceOnUse">
<stop stop-color="#6A8BFC"/>
<stop offset="1" stop-color="#8AB0F8"/>
</linearGradient>
</defs>
</svg>
