<svg width="29" height="29" viewBox="0 0 29 29" fill="none" xmlns="http://www.w3.org/2000/svg">
<g id="machines-for-food-processing">
<path id="Vector" d="M7.37676 4.0954L21.705 4.09473C22.1206 4.09591 22.4312 4.08643 22.6759 4.49673L22.6875 4.51596C22.7762 4.66626 22.7779 4.89087 22.7376 5.05703L22.7329 5.07689C22.6961 5.224 22.5965 5.35188 22.4815 5.4466L22.4685 5.45771C22.2251 5.66251 21.8809 5.64494 21.5837 5.64521L21.0344 5.64494C21.0149 6.02303 21.0088 6.3728 20.8488 6.72507C20.4673 7.56552 19.781 7.68968 18.9854 7.68767L17.8391 7.69062C17.7238 7.65508 17.6355 7.56807 17.5074 7.56126C17.1904 7.54436 16.8609 7.5631 16.5427 7.56337L12.5574 7.56619C12.0568 7.56655 11.4596 7.4895 10.9839 7.68058L9.39348 7.69493C8.3775 7.70371 7.81527 6.96627 7.71433 6.00954L7.70532 5.64369L7.17832 5.64405C6.83457 5.64642 6.43397 5.67399 6.16342 5.42123C5.68133 4.97079 5.9289 4.26693 6.55433 4.11306C6.6524 4.08893 6.76531 4.09671 6.86599 4.0963L7.37676 4.0954Z" fill="url(#paint0_linear_1_84)"/>
<path id="Vector_2" d="M7.17832 5.64413C6.83457 5.64673 6.43397 5.67429 6.16342 5.42153C5.68133 4.97109 5.9289 4.26723 6.55433 4.11337C6.6524 4.08923 6.76531 4.09702 6.86599 4.0966L7.37676 4.0957L7.35009 4.1137C7.20262 4.16392 6.69951 4.10622 6.6498 4.13745C6.52232 4.21754 6.4355 4.30691 6.46073 4.45955C6.46611 4.49219 6.45854 4.50618 6.45069 4.53751L6.448 4.55221C6.44267 4.57812 6.41851 4.6207 6.419 4.64374C6.42241 4.7961 6.6299 5.03945 6.63353 5.22596C6.63515 5.30916 6.6866 5.36066 6.7291 5.42834L6.74066 5.4465C6.75926 5.47926 6.75751 5.50585 6.74712 5.54072L6.76061 5.5456C6.7862 5.55789 6.7992 5.57819 6.81664 5.59984L6.833 5.59899C6.87939 5.59702 6.90875 5.61445 6.94824 5.61553L7.71827 5.61486C7.89358 5.61611 8.07471 5.58039 8.25051 5.60056L9.32911 5.61105L7.17832 5.64413Z" fill="#7294F7"/>
<path id="Vector_3" d="M10.9844 7.68023C11.4602 7.48915 12.0574 7.5662 12.5579 7.56584L16.5433 7.56302C16.8614 7.56275 17.191 7.54401 17.508 7.56091C17.636 7.56772 17.7243 7.65473 17.8397 7.69233C18.1226 8.0265 18.1224 8.42436 17.8066 8.74619C17.5182 9.0401 17.0722 8.97269 16.6957 8.97448C16.6647 9.06373 16.6876 9.24616 16.6872 9.34446L16.6855 10.2235C16.6853 10.4103 16.6915 10.5994 16.6757 10.7856L16.6734 10.8111C16.7334 10.8272 16.8084 10.8211 16.8712 10.8219L18.6122 10.8232C18.8595 10.8222 19.1529 10.7911 19.3954 10.8372C20.3087 11.0108 20.6617 11.7268 20.8002 12.5374L21.3485 15.8639L22.4487 21.8938C22.6538 23.0415 21.89 23.7245 20.8507 23.9158L20.817 24.0089C20.5095 24.8189 19.5656 25.3736 18.7147 25.0475L18.5076 24.9533C18.0346 24.71 17.8007 24.3495 17.6438 23.8642C17.4228 23.8363 17.1817 23.8564 16.9579 23.8563L11.1188 23.8604C11.049 23.9115 11.0556 24.0114 11.0173 24.0829C10.2525 25.5114 8.33772 25.5277 7.87729 23.9272C7.70539 23.8899 7.5299 23.8773 7.36248 23.8213C6.67587 23.5918 6.18531 22.8741 6.24287 22.1475C6.26331 21.8897 6.31943 21.6363 6.36707 21.3827L7.89513 12.7231C7.93901 12.4629 7.96819 12.1989 8.0577 11.9493C8.27707 11.3376 8.86032 10.868 9.51574 10.8275C9.77935 10.8112 12.0071 10.8415 12.0368 10.8141L12.0418 8.99734C12.0405 8.94535 11.9072 8.96933 11.8635 8.96991C11.5341 8.97457 11.1766 9.01904 10.9153 8.77564C10.6108 8.49213 10.5913 8.04393 10.8953 7.75316L10.9844 7.68023ZM14.1397 12.5576C13.5519 12.5791 12.9989 12.7152 12.4337 12.8649C11.5442 13.1008 10.5278 13.4107 10.1179 14.3289C9.82148 14.993 9.57661 16.3511 9.47235 17.0553L8.96409 20.0868C8.86471 20.7302 8.83235 21.2889 9.56634 21.5903C9.68818 21.6403 9.81548 21.6453 9.94529 21.6539L12.16 21.6767C12.4255 21.6907 12.6724 21.7842 12.9296 21.8423C13.477 21.9658 14.006 22.0417 14.5679 22.0281C14.9788 22.0049 15.3718 21.938 15.7712 21.8403C16.0089 21.7821 16.251 21.6823 16.4966 21.6705L18.1493 21.6513C18.4461 21.6452 18.8223 21.69 19.0968 21.5622C19.9889 21.1466 19.8458 20.6416 19.6989 19.8907L19.1971 16.7766C19.0941 16.1754 18.9483 15.5884 18.7927 14.9991C18.6645 14.5138 18.6615 14.2326 18.2913 13.8682C17.6635 13.2503 16.9094 12.9997 16.0782 12.808C15.4358 12.6599 14.8089 12.5234 14.1443 12.5574L14.1397 12.5576Z" fill="url(#paint1_linear_1_84)"/>
<path id="Vector_4" d="M18.2757 18.7219C17.5101 20.7552 15.3311 21.8219 13.2589 21.3058C11.4911 20.8654 10.1059 19.1203 10.1568 17.2846C10.2009 15.6901 11.3938 13.9492 12.8959 13.3945C13.3464 13.2281 13.8251 13.1512 14.3034 13.1504C15.0852 13.149 16.3264 13.4147 16.9098 13.9941C17.0578 14.0934 17.1841 14.2353 17.3046 14.3658C18.4962 15.6561 18.8224 17.0589 18.2757 18.7219Z" fill="url(#paint2_linear_1_84)"/>
<path id="Vector_5" d="M17.4882 16.9891C18.0907 16.7921 18.1254 17.4408 17.7625 17.5738C17.3876 17.6601 17.1739 17.2159 17.4882 16.9891Z" fill="#B1E3F8"/>
<path id="Vector_6" d="M14.3322 19.9053L14.3469 19.9055C14.7416 19.9006 14.8881 20.3935 14.4772 20.5521C14.3178 20.5716 14.181 20.5588 14.0964 20.4002L14.0736 20.3569C14.0506 20.3019 14.0589 20.2012 14.0819 20.1471L14.0902 20.1288C14.1464 20.003 14.2112 19.961 14.3322 19.9053Z" fill="#A0C3F7"/>
<path id="Vector_7" d="M16.4138 15.3109C15.9598 15.1784 16.1008 14.5607 16.656 14.6894C17.0059 14.9113 16.8167 15.3117 16.4138 15.3109Z" fill="#B1E3F8"/>
<path id="Vector_8" d="M16.5115 19.1084C16.9968 19.1304 16.8242 19.7428 16.438 19.7978C15.9777 19.7782 16.0568 19.2189 16.5115 19.1084Z" fill="#B1E3F8"/>
<path id="Vector_9" d="M14.3554 13.8702C14.8472 13.8635 14.8578 14.3493 14.462 14.5155C13.9513 14.6038 13.9218 13.9782 14.3554 13.8702Z" fill="#B1E3F8"/>
<path id="Vector_10" d="M12.3289 19.0957C12.7765 19.1315 12.7954 19.7113 12.3446 19.7792C11.8602 19.7245 11.8876 19.1777 12.3289 19.0957Z" fill="#A0C3F7"/>
<path id="Vector_11" d="M12.3082 14.6254C12.8155 14.6067 12.8595 15.1877 12.4113 15.3094C11.8892 15.3225 11.8792 14.746 12.3082 14.6254Z" fill="#A0C3F7"/>
<path id="Vector_12" d="M11.1027 16.9223C11.576 16.903 11.6432 17.5049 11.1676 17.639C10.5912 17.6442 10.655 17.072 11.1027 16.9223Z" fill="#99BCF7"/>
<path id="Vector_13" d="M14.3558 16.3792C14.7081 16.3582 15.0372 16.6017 15.1104 16.9517L15.1187 16.9933C15.2061 17.4225 14.8255 17.807 14.4286 17.8748C14.3641 17.8761 14.301 17.8783 14.2371 17.8667L14.2177 17.863C13.9348 17.8172 13.731 17.5769 13.6504 17.3127L13.6329 17.2546C13.5341 16.7861 13.9454 16.463 14.3558 16.3792Z" fill="#7294F7"/>
</g>
<defs>
<linearGradient id="paint0_linear_1_84" x1="15.6854" y1="8.72125" x2="13.87" y2="2.13862" gradientUnits="userSpaceOnUse">
<stop stop-color="#BDFCEF"/>
<stop offset="1" stop-color="#89A8FD"/>
</linearGradient>
<linearGradient id="paint1_linear_1_84" x1="5.36132" y1="20.1778" x2="21.4376" y2="14.0316" gradientUnits="userSpaceOnUse">
<stop stop-color="#6485FD"/>
<stop offset="1" stop-color="#99BFF7"/>
</linearGradient>
<linearGradient id="paint2_linear_1_84" x1="10.4553" y1="18.797" x2="18.2292" y2="15.7596" gradientUnits="userSpaceOnUse">
<stop stop-color="#6485FD"/>
<stop offset="1" stop-color="#A8D5F6"/>
</linearGradient>
</defs>
</svg>
