<svg width="29" height="29" viewBox="0 0 29 29" fill="none" xmlns="http://www.w3.org/2000/svg">
<g id="packaging-equipment-conveyor">
<path id="Vector" d="M18.6004 20.2441C18.901 20.2234 19.2068 20.2343 19.508 20.2343H22.1552C22.2816 20.2358 22.4304 20.2255 22.5532 20.2435C22.5098 20.2471 22.4678 20.2493 22.4259 20.2623C22.5383 20.5531 22.6484 20.7959 22.6726 21.1134C22.7538 22.1783 21.8282 23.3068 20.747 23.375C20.1356 23.4135 19.4773 23.2912 19.0089 22.8666C18.3534 22.2724 17.9379 20.96 18.6004 20.2441Z" fill="url(#paint0_linear_1_100)"/>
<path id="Vector_2" d="M6.56987 20.2638L6.57045 20.2625C6.69318 20.1993 7.71122 20.2342 7.92422 20.2344L10.485 20.2385L10.439 20.2619C10.5113 20.3919 10.5803 20.5189 10.6282 20.6604C11.0736 21.9757 9.92615 23.3773 8.57229 23.38C7.3685 23.3824 6.36125 22.5591 6.31316 21.3056C6.30285 21.0357 6.31908 20.7645 6.43486 20.5161C6.4665 20.4482 6.56238 20.3284 6.56987 20.2638Z" fill="url(#paint1_linear_1_100)"/>
<path id="Vector_3" d="M18.4332 7.62934L20.5291 7.62104C20.9596 7.62732 21.4888 7.55811 21.8849 7.75596C22.6515 8.13881 22.5665 8.73053 22.5672 9.44632L22.5674 12.0267C22.5661 13.2997 22.067 13.4965 20.8289 13.5001L18.2937 13.5013C17.6261 13.5012 17.0063 13.5963 16.6146 12.9064C16.4407 12.6001 16.4735 12.3266 16.4732 11.9873L16.475 8.92645C16.4754 8.83057 16.4677 8.7191 16.4935 8.62645L16.5043 8.59319C16.7277 7.85023 17.3121 7.62337 18.0177 7.63185C18.1539 7.6335 18.298 7.64744 18.4332 7.62934Z" fill="url(#paint2_linear_1_100)"/>
<path id="Vector_4" d="M18.4294 7.62939L20.5289 7.62109L20.6832 7.63925C20.6984 7.72692 20.6891 7.82894 20.6892 7.91828L20.6895 9.11988C20.6895 9.41065 20.703 9.79524 20.2975 9.85952C20.0481 9.89901 19.8891 9.70662 19.7391 9.54275C19.5113 9.29393 19.3339 9.68094 19.1486 9.80255L19.1294 9.81532C18.8932 9.96763 18.4823 9.80622 18.4352 9.52033C18.4064 9.34583 18.4275 9.13391 18.4277 8.95636L18.4294 7.62939Z" fill="#7294F7"/>
<path id="Vector_5" d="M9.05339 5.2538C9.2719 4.7463 9.95637 4.88382 10.3927 4.88512L11.1241 4.88651C11.2661 4.88705 11.425 4.87549 11.5636 4.91139L11.5846 4.91713C11.732 4.95572 11.8377 5.02081 11.9197 5.15151L11.9269 5.14134C12.107 4.89507 13.2378 4.91717 13.5036 5.01578C14.2705 5.30024 14.5403 5.85292 14.5415 6.62443L14.5449 11.0813C14.5459 11.8394 14.6805 12.7286 13.9658 13.2243L13.9479 13.237C13.4413 13.5877 12.8134 13.4982 12.2321 13.4987L8.56458 13.4989C8.29837 13.4986 7.99402 13.5271 7.73251 13.4804L7.68092 13.4673C7.60781 13.4458 7.53246 13.4386 7.45895 13.4147C6.31119 13.0415 6.45866 12.1011 6.46045 11.1659L6.46489 7.27281C6.46511 6.77316 6.38985 6.24029 6.61532 5.77676C7.03617 4.91134 7.98501 4.78776 8.81658 5.12005L8.9286 5.17249C8.96311 5.18948 9.03259 5.22399 9.05339 5.2538Z" fill="url(#paint3_linear_1_100)"/>
<path id="Vector_6" d="M9.05318 5.2538C9.2717 4.7463 9.95616 4.88382 10.3925 4.88512L11.1239 4.88651C11.2659 4.88705 11.4248 4.87549 11.5634 4.91139L11.5844 4.91713C11.7318 4.95572 11.8375 5.0208 11.9195 5.15151C11.9723 5.3486 11.9625 5.5244 11.9603 5.72741L11.9541 6.85303C11.9533 7.01516 11.9684 7.15976 11.8844 7.30567C11.7041 7.61863 11.3189 7.82388 10.989 7.60496C10.8344 7.50222 10.7191 7.34583 10.5449 7.27519C10.1522 7.39258 9.94222 7.83885 9.47426 7.59245C9.3228 7.51271 9.2007 7.37178 9.15592 7.20575L9.1396 7.12619C9.12105 7.0274 9.12992 6.91579 9.13024 6.81493L9.13167 6.19685C9.13158 5.86126 9.03929 5.54955 9.05318 5.2538Z" fill="#7294F7"/>
<path id="Vector_7" d="M6.57008 20.2642C6.43449 20.2781 6.29043 20.2585 6.1543 20.2505C4.85633 20.1745 3.75144 19.5011 3.278 18.2401C2.99448 17.485 2.9788 16.6817 3.28372 15.9233C3.84801 14.5196 5.06288 13.8897 6.50639 13.8708L22.3182 13.8672C22.5721 13.8688 22.8364 13.8633 23.0873 13.9055C24.4532 14.1351 25.6371 15.2445 25.822 16.6408C26.0432 18.3115 24.8445 19.9734 23.1599 20.2149C22.9598 20.2435 22.7555 20.2395 22.5538 20.2382C22.4309 20.2254 22.2822 20.2358 22.1558 20.2343H19.5085C19.2073 20.2343 18.9015 20.2234 18.6009 20.2415L10.4852 20.2383L7.92444 20.2348C7.71144 20.2346 6.69339 20.1996 6.57067 20.2629L6.57008 20.2642ZM6.07917 16.4341C5.17027 16.6582 5.39713 17.9234 6.27335 17.7584C6.90882 17.5771 7.09184 16.789 6.47138 16.4857L6.38187 16.4513C6.28975 16.4189 6.17532 16.4236 6.07917 16.4341ZM22.6726 16.4358C21.8267 16.6572 22.0143 17.9011 22.904 17.7641C23.1643 17.6804 23.3634 17.5174 23.4349 17.2506L23.4421 17.2246C23.5355 16.8756 23.2888 16.5592 22.9652 16.4589L22.9422 16.4513C22.8555 16.4242 22.7624 16.427 22.6726 16.4358Z" fill="url(#paint4_linear_1_100)"/>
</g>
<defs>
<linearGradient id="paint0_linear_1_100" x1="20.1908" y1="23.3341" x2="20.6235" y2="20.0257" gradientUnits="userSpaceOnUse">
<stop stop-color="#6488FA"/>
<stop offset="1" stop-color="#7FA6FF"/>
</linearGradient>
<linearGradient id="paint1_linear_1_100" x1="8.26422" y1="23.3365" x2="8.64207" y2="20.0533" gradientUnits="userSpaceOnUse">
<stop stop-color="#6586FA"/>
<stop offset="1" stop-color="#7EA5FF"/>
</linearGradient>
<linearGradient id="paint2_linear_1_100" x1="16.4211" y1="10.414" x2="22.6146" y2="10.7152" gradientUnits="userSpaceOnUse">
<stop stop-color="#89B0FA"/>
<stop offset="1" stop-color="#BAF2F5"/>
</linearGradient>
<linearGradient id="paint3_linear_1_100" x1="14.7761" y1="9.69301" x2="6.22674" y2="8.74039" gradientUnits="userSpaceOnUse">
<stop stop-color="#BCF5F4"/>
<stop offset="1" stop-color="#89B0FD"/>
</linearGradient>
<linearGradient id="paint4_linear_1_100" x1="14.4116" y1="20.318" x2="14.4845" y2="13.7954" gradientUnits="userSpaceOnUse">
<stop stop-color="#7295FB"/>
<stop offset="1" stop-color="#A2CCF7"/>
</linearGradient>
</defs>
</svg>
