<svg width="34" height="27" viewBox="0 0 34 27" fill="none" xmlns="http://www.w3.org/2000/svg">
<mask id="mask0_46_165" style="mask-type:alpha" maskUnits="userSpaceOnUse" x="0" y="0" width="34" height="27">
<rect width="34" height="27" rx="5" fill="#CF1B2B"/>
</mask>
<g mask="url(#mask0_46_165)">
<path d="M0 4.21518V8.30775H5.31533L0 4.21518ZM4.40489 27.0001H12.2778V20.9386L4.40489 27.0001ZM21.7222 20.9396V27.0001H29.5942L21.7222 20.9396ZM0 18.6924V22.7849L5.31722 18.6924H0ZM29.5961 6.10352e-05H21.7222V6.06156L29.5961 6.10352e-05ZM34 22.786V18.6924H28.6818L34 22.786ZM34 8.30775V4.21518L28.6837 8.30775H34ZM12.2778 6.10352e-05H4.40489L12.2778 6.06156V6.10352e-05Z" fill="#00247D"/>
<path d="M23.7435 18.6923L32.9159 25.7549C33.3639 25.2475 33.6858 24.6221 33.8509 23.9386L27.0368 18.6923H23.7435ZM12.2779 18.6923H10.2559L1.08438 25.7538C1.57644 26.3042 2.20733 26.6978 2.91472 26.8806L12.2779 19.6716V18.6923ZM21.7224 8.3077H23.7444L32.9159 1.24616C32.4154 0.687753 31.781 0.297033 31.0865 0.119429L21.7224 7.32843V8.3077ZM10.2559 8.3077L1.08438 1.24616C0.636671 1.75394 0.314485 2.37917 0.148438 3.06243L6.9626 8.3077H10.2559Z" fill="#CF1B2B"/>
<path d="M34 16.6154H19.8333V27H21.7222V20.9395L29.5942 27H30.2222C30.724 27.0001 31.2207 26.89 31.6832 26.6762C32.1458 26.4624 32.5648 26.1491 32.9158 25.7549L23.7433 18.6923H27.0366L33.8508 23.9386C33.9386 23.5887 34 23.2262 34 22.8462V22.7859L28.6818 18.6923H34V16.6154ZM0 16.6154V18.6923H5.31722L0 22.7849V22.8462C0 23.9791 0.414611 25.0041 1.08422 25.7538L10.2557 18.6923H12.2778V19.6716L2.91456 26.8795C3.19222 26.9522 3.47933 27 3.77778 27H4.40489L12.2778 20.9385V27H14.1667V16.6154H0ZM34 4.15385C34.0006 3.06552 33.611 2.0208 32.9158 1.24615L23.7443 8.30769H21.7222V7.32842L31.0864 0.119423C30.8035 0.0431246 30.5135 0.00305106 30.2222 3.92931e-07H29.5961L21.7222 6.0615V3.92931e-07H19.8333V10.3846H34V8.30769H28.6837L34 4.21512V4.15385ZM12.2778 3.92931e-07V6.0615L4.40489 3.92931e-07H3.77778C3.27592 -0.000240063 2.77909 0.109883 2.31651 0.323891C1.85393 0.537899 1.43495 0.851469 1.08422 1.24615L10.2557 8.30769H6.96244L0.148278 3.06242C0.0545702 3.41728 0.00469711 3.78437 0 4.15385L0 4.21512L5.31533 8.30769H0V10.3846H14.1667V3.92931e-07H12.2778Z" fill="#EEEEEE"/>
<path d="M19.8333 10.3847V6.10352e-05H14.1667V10.3847H0V16.6154H14.1667V27.0001H19.8333V16.6154H34V10.3847H19.8333Z" fill="#CF1B2B"/>
</g>
</svg>
