<svg width="20" height="20" viewBox="0 0 20 20" fill="none" xmlns="http://www.w3.org/2000/svg">
<g id="Group 1000005096">
<path id="Vector" d="M14.6624 13.0446C15.245 12.9949 15.6613 13.2835 16.0473 13.6698L18.3967 16.0334C18.6208 16.2544 18.8637 16.4639 19.0627 16.7085C19.9106 17.7509 19.1254 19.2565 17.8038 19.3637C17.664 19.3647 17.5021 19.3783 17.3665 19.3441C16.5596 19.1402 16.0176 18.3435 15.4502 17.7812L13.5971 15.9614C13.4911 15.8562 13.3769 15.7441 13.2915 15.6212C12.5641 14.575 13.4107 13.1421 14.6624 13.0446Z" fill="#797979"/>
<path id="Vector_2" d="M7.63451 0.753981L7.65588 0.753801C9.47119 0.734817 11.1842 1.42221 12.4861 2.70326C14.9113 5.08955 15.3017 8.77822 13.4078 11.5957C12.2661 13.2943 10.3678 14.4092 8.32162 14.5727L7.76365 14.5898L7.05416 14.5686C3.51889 14.163 0.819176 11.4139 0.810941 7.77842C0.809711 7.23541 0.848691 6.70498 0.963144 6.17146C1.58572 3.26975 4.20615 0.988614 7.16318 0.76366C7.31861 0.751836 7.4785 0.756047 7.63451 0.753981Z" fill="#6B6B6B"/>
<path id="Vector_3" d="M7.49271 2.33976C7.67349 2.33554 7.85865 2.32707 8.03888 2.33953C12.3817 2.63968 14.6786 8.00734 11.6988 11.318C10.696 12.4322 9.41841 13.003 7.94588 13.0765C6.28283 13.2336 4.46463 12.3332 3.47986 11.0137C1.11263 7.84179 2.72959 3.28039 6.6631 2.45144C6.93837 2.39343 7.21306 2.36554 7.49271 2.33976Z" fill="white"/>
</g>
</svg>
