<svg width="29" height="29" viewBox="0 0 29 29" fill="none" xmlns="http://www.w3.org/2000/svg">
<path d="M13.6739 5.07597L13.6622 4.52504C13.6628 4.2332 13.6327 3.91757 13.8545 3.69296C14.1504 3.3934 14.573 3.40666 14.8594 3.70866C15.1755 4.04182 15.025 4.65736 15.0487 5.08382C15.0448 5.10964 15.0401 5.12725 15.0285 5.15061C14.3899 5.058 14.3965 5.00941 13.6908 5.14043L13.6739 5.07597Z" fill="#7294F7"/>
<path d="M11.6131 8.85382L7.57026 8.84244C7.40239 8.8428 7.18777 8.86956 7.02815 8.81891L7.00337 8.81084C6.20783 8.56215 6.37924 7.50377 7.18083 7.3732C7.32292 7.35002 7.48029 7.36629 7.62427 7.36768L11.1557 7.36939L11.5158 7.39337C11.4484 7.77114 11.45 8.53028 11.6131 8.85382Z" fill="#88ABF7"/>
<path d="M17.6567 7.36963L19.9372 7.37066C20.517 7.37304 20.9917 7.50069 21.4202 7.92594L21.602 8.13312C21.9335 8.54823 21.9832 9.01382 21.9845 9.5228L21.9851 10.2764C21.9854 10.6774 22.005 11.0889 21.982 11.4888L20.4934 11.4883L20.4924 10.0843C20.492 9.81393 20.5098 9.52898 20.4708 9.26156C20.3863 8.68235 19.5795 8.83923 19.1775 8.83842L17.4165 8.84111L17.1051 8.84008C17.2877 8.43277 17.2671 7.80057 17.1774 7.38137L17.6567 7.36963Z" fill="#88ABF7"/>
<path d="M13.6747 5.07579L13.6916 5.14024C14.3972 5.00922 14.3906 5.05781 15.0292 5.15042C15.0408 5.12706 15.0455 5.10945 15.0488 5.08363C15.0502 5.11985 15.0491 5.1454 15.0643 5.17915C15.8843 5.39968 16.6685 6.04708 16.9872 6.84687L17.1082 7.17862C17.1249 7.23079 17.1397 7.32447 17.1712 7.36589L17.6566 7.36934L17.1772 7.38086C17.267 7.80006 17.2876 8.43225 17.1049 8.83957L17.4163 8.8406L17.1001 8.84988C17.0376 9.00654 16.995 9.16118 16.9208 9.31538C15.9299 11.3738 13.0186 11.3467 11.8777 9.46357C11.7305 9.22071 11.7178 9.06634 11.6127 8.85333C11.4496 8.52979 11.448 7.77065 11.5154 7.39287L11.1553 7.36961L11.5258 7.37069L11.7171 6.81276C11.9945 6.20226 12.5086 5.6178 13.1241 5.33339C13.3019 5.25123 13.485 5.21779 13.6659 5.1501L13.6747 5.07579Z" fill="#B1E3F8"/>
<path d="M21.2578 11.99L23.5053 11.9886C23.6708 11.9886 23.8441 11.9787 24.0068 12.0132C25.7103 12.375 25.6201 14.9421 23.8886 15.1715C23.7076 15.1955 23.5138 15.183 23.3311 15.1831L7.51384 15.1827L5.17022 15.1828C3.27304 15.1805 2.84991 12.8506 4.41469 12.1429C4.8058 11.966 5.19635 11.9903 5.61577 11.9899L21.2578 11.99Z" fill="#7294F7"/>
<path d="M5.76487 22.6616L5.74865 16.5647C5.7482 16.2966 5.76299 16.0154 5.73596 15.7493L22.9723 15.709L22.9701 21.935C22.97 22.3722 23.0028 22.5938 22.8883 23.0162C22.4189 24.0688 20.9198 23.8614 20.8536 22.581L20.8255 21.6155L20.24 21.6103L20.2383 22.284C20.2373 22.5429 20.2612 22.8377 20.1371 23.0735C20.0782 23.2786 19.8585 23.4723 19.6796 23.5747C18.9695 23.9809 18.1625 23.4183 18.1657 22.5837L18.1537 21.6086L10.5835 21.6106L10.5799 22.2767C10.5795 22.5297 10.5956 22.7927 10.5036 23.0336C10.2901 23.8055 8.86356 23.9702 8.58444 23.036L8.57202 22.9935C8.49712 22.8216 8.51774 22.5817 8.51599 22.3947L8.50479 21.8654C8.50425 21.7877 8.51563 21.6887 8.49578 21.6137L7.88783 21.6107L7.8859 22.2178C7.88541 22.5129 7.90034 22.9359 7.71113 23.1838C7.71382 23.2137 7.6231 23.3159 7.60221 23.3404C7.01331 24.0317 5.82202 23.6829 5.76487 22.6616Z" fill="url(#paint0_linear_1_23)"/>
<path d="M17.9996 18.1133C18.6615 18.0789 18.8895 18.9479 18.1809 19.1319C17.5187 19.264 17.2991 18.3037 17.9996 18.1133Z" fill="white"/>
<path d="M10.6121 18.1008C11.2964 18.063 11.4818 18.9362 10.7735 19.1453C10.0517 19.1731 9.95876 18.3049 10.6121 18.1008Z" fill="white"/>
<path d="M13.1636 18.1016C13.8147 18.0521 13.9689 18.9417 13.2636 19.1385C12.9133 19.1779 12.5605 18.8639 12.6945 18.4948L12.7016 18.476C12.7804 18.2624 12.9471 18.1579 13.1636 18.1016Z" fill="white"/>
<path d="M15.576 18.1016C16.2701 18.1075 16.3631 18.9676 15.6525 19.1484C14.9725 19.1673 14.8561 18.2118 15.576 18.1016Z" fill="white"/>
<defs>
<linearGradient id="paint0_linear_1_23" x1="14.3595" y1="23.6932" x2="14.3491" y2="15.7111" gradientUnits="userSpaceOnUse">
<stop stop-color="#7797FB"/>
<stop offset="1" stop-color="#B2E2F5"/>
</linearGradient>
</defs>
</svg>
