<svg width="29" height="29" viewBox="0 0 29 29" fill="none" xmlns="http://www.w3.org/2000/svg">
<g id="glass-working-machine">
<path id="Vector" d="M14.1691 2.48422C15.0242 2.41853 15.8424 2.92378 16.0248 3.7921C16.1047 4.17259 16.0681 4.59781 16.0683 4.98648L16.0682 8.1247C16.0679 8.65094 16.1015 9.16812 15.793 9.62931C15.5542 9.98625 15.1773 10.2532 14.7551 10.3323C14.7065 10.6476 14.7875 12.1541 14.7034 12.2713L14.693 12.2847C14.6514 12.3425 14.6124 12.3799 14.5571 12.424C14.3262 12.5404 14.0402 12.4448 13.9877 12.165C13.947 11.9484 13.9694 11.6998 13.9692 11.4799L13.9668 10.3387C13.9402 10.3025 13.8141 10.2937 13.7637 10.2771C13.2145 10.0962 12.836 9.59605 12.7042 9.04597L12.6986 9.02096C12.6404 8.76654 12.6663 8.47397 12.6661 8.2131L12.6679 3.99637C12.7015 3.16931 13.4049 2.62154 14.1691 2.48422ZM14.3012 3.76925C13.7873 3.93239 13.7753 4.57513 14.1892 4.76855L14.2211 4.78365C14.2866 4.81481 14.3554 4.81073 14.4258 4.80311C14.9858 4.59373 14.9317 3.72261 14.3012 3.76925Z" fill="#99BCF7"/>
<path id="Vector_2" d="M9.87446 5.65528L12.1596 5.65833L12.1583 7.5391L11.1397 7.52874C9.83003 7.52498 9.81054 7.86044 9.68234 8.97441L9.13163 13.4514C9.08869 13.8051 9.04127 14.1576 8.99711 14.511L8.52261 18.1138C8.49997 18.2879 8.48697 18.4688 8.44094 18.6387L8.38379 18.6452C7.73379 18.5996 6.89895 18.553 6.29517 18.8438L7.60766 8.62761C7.66606 8.16489 7.68431 7.67595 7.79861 7.22331C7.98947 6.46718 8.69482 5.78746 9.47225 5.66917C9.60161 5.6495 9.74343 5.65707 9.87446 5.65528Z" fill="#99BCF7"/>
<path id="Vector_3" d="M16.5587 5.65625L18.8959 5.65634C19.8254 5.65925 20.6153 6.26232 20.9081 7.14508C21.0216 7.48713 21.0439 7.85016 21.0844 8.20571L22.3123 17.991C22.324 18.0707 22.458 18.7983 22.4406 18.8327L22.3925 18.8248C21.8672 18.6468 21.3491 18.5949 20.7961 18.6202L20.2508 18.6592C20.22 18.601 20.2263 18.4679 20.2203 18.3991L19.3895 11.934L18.9934 8.41087C18.8775 7.43231 18.1397 7.52824 17.427 7.52752C17.1531 7.52725 16.8616 7.50986 16.59 7.54469L16.5587 5.65625Z" fill="#7294F7"/>
<path id="Vector_4" d="M12.1131 13.7301L17.0747 13.73C17.2396 13.7302 17.4792 13.703 17.6361 13.752L17.6564 13.7588C17.8486 13.8219 17.9918 13.9191 18.1141 14.0812L18.1264 14.0978C18.3367 14.3722 18.26 14.6763 18.1916 14.9873L17.7087 17.411C17.545 18.1226 17.5209 18.6044 16.6726 18.6436L13.5273 18.6552C12.8995 18.6547 11.693 18.8335 11.2959 18.269L11.2863 18.2547C11.1754 18.0934 11.1178 17.9069 11.0731 17.7182L10.6267 15.3946C10.5253 14.8317 10.2376 14.0913 10.9502 13.7862L10.9673 13.779C11.1256 13.7108 11.3008 13.7315 11.4702 13.731L12.1131 13.7301Z" fill="#B1E3F8"/>
<path id="Vector_5" d="M7.2733 19.1042L21.1872 19.1035C22.9024 19.1016 23.4931 19.931 24.2023 21.404C24.5272 22.0786 24.8358 22.7048 24.0415 23.2731L23.9015 23.3593C23.4798 23.5787 22.9289 23.5205 22.4684 23.5208L21.4814 23.5209H5.74121C5.57168 23.5207 5.38844 23.5338 5.2204 23.5145C4.52993 23.435 4.05629 22.724 4.25968 22.0614C4.36801 21.7084 4.87467 20.7211 5.07813 20.3893C5.54156 19.6333 6.37036 19.093 7.2733 19.1042Z" fill="url(#paint0_linear_1_133)"/>
</g>
<defs>
<linearGradient id="paint0_linear_1_133" x1="23.6682" y1="19.0553" x2="4.64572" y2="24.0948" gradientUnits="userSpaceOnUse">
<stop stop-color="#6A8BFB"/>
<stop offset="1" stop-color="#9FC4F7"/>
</linearGradient>
</defs>
</svg>
