<svg width="23" height="22" viewBox="0 0 23 22" fill="none" xmlns="http://www.w3.org/2000/svg">
<path d="M3.27642 13.1972L3.26477 7.82633C3.26495 7.44152 3.26634 7.06935 3.35047 6.69126C3.75237 4.8857 5.381 3.85645 7.18275 3.83789L8.17412 3.85277C8.1444 4.05215 8.16126 4.27466 8.16086 4.47672L8.16547 5.47706L8.15023 5.48181C7.53457 5.55532 6.91703 5.40628 6.32038 5.63206C5.60589 5.90235 5.07768 6.53746 4.9688 7.29373C4.94289 7.47384 4.95607 7.67039 4.95607 7.85233L4.95706 13.0976L3.7105 13.1378C3.56375 13.1495 3.42165 13.1801 3.27642 13.1972Z" fill="url(#paint0_linear_17_577)"/>
<path d="M14.4148 3.8385L15.3957 3.83295C15.5838 3.83304 15.7759 3.82582 15.9634 3.839C17.5074 3.94752 18.878 5.01478 19.2775 6.52687C19.4033 7.00317 19.3842 7.49247 19.3846 7.98029L19.368 13.187L17.7024 13.1015L17.6888 8.34623C17.6885 7.9382 17.7369 7.4541 17.6135 7.06238C17.3688 6.28545 16.8836 5.7407 16.0618 5.5411C15.5105 5.40717 14.9279 5.51223 14.44 5.4086L14.4375 5.39991C14.473 5.06892 14.4705 4.70751 14.4504 4.37595L14.4102 3.8702L14.4148 3.8385Z" fill="#7294F7"/>
<path d="M7.18347 3.83499L8.17619 3.83168C8.1926 3.68757 8.20048 3.54319 8.22819 3.40056C8.74312 0.751919 12.133 -0.0408439 13.8081 2.11455C14.1684 2.57826 14.3356 3.13031 14.3797 3.7068C14.3839 3.76166 14.3684 3.80527 14.4148 3.83952L14.4101 3.87121L14.4503 4.37696C14.4704 4.70852 14.4729 5.06994 14.4458 5.40092L14.4399 5.40962L14.4258 5.42517C14.3848 5.50281 14.402 5.70039 14.4013 5.79156L14.4004 6.61668C14.3995 7.3167 14.2912 7.98884 13.5213 8.27257C13.2531 8.37141 12.9934 8.35617 12.7127 8.35635L12.0176 8.35604L10.9161 8.3633L10.9118 9.26601L10.9112 8.36796C10.8685 8.3412 10.7035 8.35859 10.6419 8.35859L9.74655 8.36052C9.58523 8.36227 9.38209 8.38786 9.22557 8.35626C8.33854 8.17705 8.21061 7.38304 8.20999 6.65026L8.20967 5.93661C8.20945 5.7982 8.22415 5.63217 8.19874 5.49702L8.19479 5.47775L8.16158 4.47741C8.16198 4.27534 8.14513 4.05284 8.17485 3.85346L7.18347 3.83499ZM11.1585 3.2023C9.85086 3.45399 9.99372 5.34157 11.4836 5.26918C12.8967 4.9534 12.5182 3.04197 11.1585 3.2023Z" fill="url(#paint1_linear_17_577)"/>
<path d="M14.4012 3.87012L14.45 4.37587C14.4701 4.70743 14.4726 5.06885 14.4454 5.39983L14.4181 5.3875C14.3636 5.18288 14.3838 4.11011 14.4012 3.87012Z" fill="#405EE7"/>
<path d="M2.1173 17.76C2.30964 17.7198 2.50108 17.7142 2.69629 17.7015L4.51628 17.6807L20.1006 17.7132C20.2445 17.7141 20.3965 17.7128 20.5335 17.7624C21.3557 18.0281 21.9088 18.4545 22.1574 19.3334C22.3787 20.1157 22.0268 21.1966 21.1052 21.2381L1.62706 21.241C0.919324 21.2411 0.423656 20.9392 0.381727 20.2159C0.319982 19.1505 0.857942 18.0982 1.95082 17.7996L2.1173 17.76Z" fill="url(#paint2_linear_17_577)"/>
<path d="M10.9108 9.26599L10.9155 8.36328L12.017 8.35449L12.0062 9.58841C12.0058 9.74659 12.0287 9.95099 11.9969 10.1037C11.9085 10.5293 11.2798 10.6458 11.0125 10.3138C10.8797 10.1487 10.9104 9.94951 10.9101 9.75157L10.9108 9.26599Z" fill="#7294F7"/>
<path d="M4.97118 13.0987C6.24024 13.0974 17.6866 13.1125 17.7023 13.1006L19.3608 13.1881C20.1749 13.4123 20.5467 14.2625 20.5474 15.0465L20.5461 17.6124C20.5459 17.6545 20.5363 17.7259 20.5474 17.7644C20.3963 17.7132 20.2444 17.7145 20.1004 17.7137L4.51612 17.6811L2.69613 17.702C2.50092 17.7147 2.30948 17.7203 2.11714 17.7605L2.11279 15.0055C2.11302 14.576 2.15529 14.1593 2.42284 13.8008L2.43337 13.7869C2.6276 13.523 2.94392 13.2585 3.27714 13.198C3.42237 13.1809 3.56446 13.1503 3.71122 13.1386L4.97118 13.0987Z" fill="url(#paint3_linear_17_577)"/>
<path d="M14.6023 14.685C14.9508 14.6614 15.2626 14.8139 15.4613 15.1106L15.4748 15.1314C15.8735 15.7236 15.5398 16.4999 14.8078 16.6005C14.675 16.6143 14.5359 16.6227 14.4064 16.5829L14.3848 16.5759C13.4166 16.2779 13.511 14.9102 14.6023 14.685Z" fill="#7294F7"/>
<path d="M17.3995 14.6885C18.4878 14.73 18.712 16.5952 17.2362 16.6151C16.0678 16.4885 15.9869 14.7714 17.3995 14.6885Z" fill="#7294F7"/>
<defs>
<linearGradient id="paint0_linear_17_577" x1="2.44789" y1="9.19335" x2="8.98451" y2="7.78146" gradientUnits="userSpaceOnUse">
<stop stop-color="#9FC5F5"/>
<stop offset="1" stop-color="#7B9EFC"/>
</linearGradient>
<linearGradient id="paint1_linear_17_577" x1="14.4519" y1="4.23215" x2="7.93776" y2="5.27822" gradientUnits="userSpaceOnUse">
<stop stop-color="#6B8EF9"/>
<stop offset="1" stop-color="#96BAF5"/>
</linearGradient>
<linearGradient id="paint2_linear_17_577" x1="22.1477" y1="19.0227" x2="0.39245" y2="19.9462" gradientUnits="userSpaceOnUse">
<stop stop-color="#6889FE"/>
<stop offset="1" stop-color="#A0C5F3"/>
</linearGradient>
<linearGradient id="paint3_linear_17_577" x1="20.5062" y1="14.7315" x2="2.0209" y2="16.2636" gradientUnits="userSpaceOnUse">
<stop stop-color="#86AAFB"/>
<stop offset="1" stop-color="#B8F1F4"/>
</linearGradient>
</defs>
</svg>
