<svg width="19" height="22" viewBox="0 0 19 22" fill="none" xmlns="http://www.w3.org/2000/svg">
<path d="M1.77979 19.7485L4.64023 19.7461C4.55641 20.7731 3.81345 21.1096 2.87076 21.0311C2.20315 20.9756 1.79346 20.3777 1.77979 19.7485Z" fill="#7294F7"/>
<path d="M13.9221 19.8011L13.9313 19.7461L16.826 19.7675C16.7041 20.5883 16.1882 21.0381 15.3898 21.0361C14.6012 21.0342 13.9595 20.6715 13.9221 19.8011Z" fill="#7294F7"/>
<path d="M4.58423 7.36621C4.72435 7.3442 4.87375 7.35393 5.01485 7.35388L9.6012 7.35258C9.85132 7.35236 10.0964 7.35545 10.3454 7.3252L10.3393 7.32596C10.2171 7.51776 10.0617 7.68356 9.94599 7.88213L9.47507 8.7324C9.2453 9.14196 8.95592 9.7391 8.45317 9.85273C8.1884 9.91257 7.89946 9.87676 7.62953 9.89993L7.66113 11.6499C7.45373 11.6367 7.2141 11.6248 7.00316 11.6476L7.01418 9.89361C6.74923 9.8682 6.4875 9.91571 6.226 9.84489L6.0853 9.79746C5.77328 9.66425 5.63132 9.35272 5.473 9.07472L4.63497 7.45666C4.61803 7.42506 4.59768 7.40063 4.58423 7.36621Z" fill="#7FA1F7"/>
<path d="M7.66662 11.6488L8.50886 11.6518C8.89982 11.6535 9.3819 11.6075 9.56617 12.0567L9.57379 12.0788C9.67312 12.3292 9.54609 12.614 9.51261 12.8693L9.45617 13.4657C9.43277 13.8685 9.45994 14.4179 9.02586 14.6181L8.98458 14.6381C8.94468 14.6546 8.89601 14.6601 8.85311 14.6614L5.73291 14.6608C4.95127 14.6248 4.95239 13.4523 4.90599 12.8494C4.83414 11.9152 4.85844 11.6543 5.94551 11.6517L7.00389 11.6478C7.21484 11.6235 7.45447 11.6354 7.66662 11.6488Z" fill="url(#paint0_linear_17_579)"/>
<path d="M1.2881 2.28736C0.872091 1.85086 0.78966 1.29706 1.34624 0.923386L1.36372 0.911531C1.41114 0.880078 1.46207 0.859217 1.51433 0.837432L1.53603 0.828153C1.65109 0.781115 1.79847 0.773943 1.92196 0.769331L13.1691 0.767578C13.5421 0.777735 13.905 0.995338 14.0381 1.35594L14.0724 1.47034C14.1652 1.783 14.0266 2.0783 13.8163 2.30134L1.2881 2.28736Z" fill="url(#paint1_linear_17_579)"/>
<path d="M1.28772 2.28906L13.8159 2.29901L10.6275 6.82907C10.5193 6.98366 10.4544 7.16601 10.3469 7.31626C10.0979 7.35557 9.85283 7.35248 9.60271 7.3527L5.01636 7.354C4.87526 7.35405 4.72586 7.34432 4.58574 7.35889L4.61425 7.33074C4.56664 7.14427 4.44539 6.9799 4.34346 6.81943L1.28772 2.28906Z" fill="url(#paint2_linear_17_579)"/>
<path d="M1.78042 19.7478C1.08246 19.7554 0.452104 19.3031 0.320456 18.6007C0.278277 18.376 0.289168 18.1384 0.288541 17.9103L0.287958 17.1295C0.288182 16.9346 0.283476 16.7342 0.310505 16.5407C0.39325 15.9485 0.905589 15.433 1.49919 15.3499C1.6823 15.3243 1.89557 15.3536 2.08258 15.3549L9.27307 15.3572C9.47523 15.3568 9.69191 15.3746 9.89106 15.3409L9.91235 15.3375C10.2365 15.2815 10.2512 15.0031 10.2505 14.7463L10.2589 13.4765C10.2666 13.3296 10.2932 13.1863 10.296 13.0374L10.3324 10.9264C10.3737 10.1616 10.4727 9.58983 11.3089 9.24021C11.5151 9.15397 11.7077 9.13904 11.9291 9.1377L16.4675 9.1411C17.0811 9.17562 17.6035 9.81364 17.6835 10.3852C17.7533 10.8833 17.7774 11.3911 17.8158 11.8924L18.3756 17.8819C18.5505 20.0822 16.9187 19.5935 16.8269 19.7768L13.9322 19.7472L13.923 19.7791L13.9189 19.7637C13.8863 19.7364 13.8588 19.7482 13.8185 19.7482L4.64087 19.7474L1.78042 19.7478ZM13.3555 10.8074C13.196 10.81 13.0269 10.8057 12.8708 10.8408C12.2743 10.9749 11.9425 11.5586 12.0238 12.1492C12.1377 12.9766 12.9858 12.9826 13.6135 12.9828L14.8131 12.9829C15.2068 12.9815 15.5431 12.9632 15.8395 12.6699C16.5318 11.9847 16.0272 10.8801 15.1111 10.8174C14.9183 10.8043 14.7239 10.8083 14.5308 10.8079L13.3555 10.8074ZM13.8285 14.866C13.0717 14.927 12.4654 15.4873 12.3524 16.2355C12.1975 17.2602 13.0437 18.0426 14.0209 18.0252C14.4601 17.9839 14.8437 17.7861 15.1261 17.4416L15.1827 17.366C15.6004 16.7917 15.5805 16.1025 15.1788 15.5295L15.1635 15.5073C14.928 15.1698 14.544 14.9458 14.1406 14.8824L13.8285 14.866Z" fill="url(#paint3_linear_17_579)"/>
<path d="M13.8421 15.4685C15.1888 15.4265 15.2455 17.2587 13.9634 17.4503C12.667 17.4765 12.5513 15.5808 13.8421 15.4685Z" fill="#7294F7"/>
<path d="M13.2945 11.4062L15.1561 11.4103C15.639 11.4503 15.7325 12.2773 15.2541 12.3886C15.1462 12.4137 15.0142 12.4044 14.9027 12.4063L13.1924 12.4024C13.1037 12.4018 13.0039 12.4097 12.9198 12.3794L12.9024 12.3727C12.5842 12.2618 12.5073 11.8965 12.6677 11.6208C12.7997 11.3939 13.0687 11.4105 13.2945 11.4062Z" fill="#7294F7"/>
<defs>
<linearGradient id="paint0_linear_17_579" x1="5.86183" y1="11.2524" x2="8.66777" y2="14.8623" gradientUnits="userSpaceOnUse">
<stop stop-color="#96BBF4"/>
<stop offset="1" stop-color="#7599FB"/>
</linearGradient>
<linearGradient id="paint1_linear_17_579" x1="11.4042" y1="5.00967" x2="3.65376" y2="-1.7421" gradientUnits="userSpaceOnUse">
<stop stop-color="#6C8BFE"/>
<stop offset="1" stop-color="#9EC4F9"/>
</linearGradient>
<linearGradient id="paint2_linear_17_579" x1="13.2087" y1="1.20611" x2="3.15899" y2="6.07011" gradientUnits="userSpaceOnUse">
<stop stop-color="#8EB7FB"/>
<stop offset="1" stop-color="#B8F3F4"/>
</linearGradient>
<linearGradient id="paint3_linear_17_579" x1="18.2605" y1="14.3184" x2="0.21388" y2="14.8552" gradientUnits="userSpaceOnUse">
<stop stop-color="#7093FB"/>
<stop offset="1" stop-color="#A5CBF3"/>
</linearGradient>
</defs>
</svg>
