<svg width="29" height="29" viewBox="0 0 29 29" fill="none" xmlns="http://www.w3.org/2000/svg">
<path d="M18.6625 21.0146C20.7006 20.8798 20.8349 23.6134 18.9976 23.8948C17.0843 24.1128 16.788 21.3051 18.6625 21.0146Z" fill="#7294F7"/>
<path d="M8.60964 21.0008C10.6069 20.811 10.9186 23.4887 9.03708 23.8794L9.0175 23.8823C7.10342 24.1579 6.73398 21.263 8.60964 21.0008Z" fill="#7294F7"/>
<path d="M22.2133 15.0583C22.3129 15.2112 22.296 15.007 22.2951 14.9295L22.2892 13.0379C22.2891 12.7406 22.256 12.3989 22.3195 12.1098L22.3228 12.093C22.3419 12.0065 22.3985 11.9043 22.4507 11.8336L22.4626 11.8171C22.8564 11.2834 23.8243 11.4869 23.9151 12.1518L23.9186 12.1735C23.9389 12.307 23.9334 12.449 23.9336 12.5838L23.9287 15.1258L24.6773 15.1278C24.813 15.1279 24.9898 15.1081 25.1155 15.1655C25.8851 15.5171 25.6169 16.435 25.0805 16.4816L25.0566 16.4838C24.7591 16.5078 24.1685 16.4417 23.9352 16.4922L23.9346 18.2824C23.9349 18.5965 23.9589 18.9337 23.9252 19.2451C23.875 19.7075 23.3561 20.0357 22.9145 19.9235L22.8961 19.9191C22.6142 19.8479 22.3637 19.5762 22.3066 19.2891C22.2224 18.8659 22.3804 16.5454 22.2332 16.4735L22.2103 16.4892C22.1187 16.439 22.168 16.2215 22.1683 16.1415L22.1705 15.4749C22.171 15.3601 22.1321 15.151 22.2133 15.0583Z" fill="#7FA1F7"/>
<path d="M11.4377 4.25388L16.155 4.25156C16.3423 4.25022 16.5469 4.23293 16.7324 4.25626C17.5834 4.36334 18.014 5.58301 17.3119 6.28222C17.0281 6.56493 16.7406 6.62176 16.3604 6.62199L14.1604 6.61966L14.1547 8.6063C14.2045 8.62051 14.2687 8.61374 14.3206 8.61397L16.0904 8.61527C16.5097 8.61697 16.8658 8.54507 17.1356 8.94782L17.1466 8.96467C17.1724 9.00349 17.1935 9.03989 17.2109 9.08337L17.2192 9.10466C17.3775 9.49481 17.1566 10.0102 16.7394 10.1195C16.5896 10.1587 16.4177 10.1434 16.2632 10.1431L15.5694 10.1414L10.5373 10.1399C10.3851 10.1396 10.2371 10.1438 10.0905 10.0963C9.41963 9.87944 9.32837 8.97633 9.99975 8.68748L10.0153 8.68098C10.3119 8.55287 10.7207 8.61832 11.0367 8.61827L12.5882 8.6189L12.5929 6.62253L10.4789 6.61934C8.7752 6.60693 8.87803 4.448 10.1973 4.26647C10.3644 4.24347 10.5435 4.25454 10.7124 4.25427L11.4377 4.25388Z" fill="url(#paint0_linear_1_69)"/>
<path d="M22.1954 16.4893C22.1533 16.6936 22.1254 16.9072 22.0732 17.1135C21.6512 18.7804 20.1507 20.444 18.3771 20.6198C18.1551 20.6418 17.9275 20.633 17.7045 20.6331L9.22983 20.6337C7.28814 20.6325 5.67138 19.4585 4.9356 17.6631C4.80534 17.3452 4.69238 16.9772 4.66177 16.6333L4.64769 16.4832C4.37247 16.49 4.08442 16.527 3.83258 16.3952C3.34032 16.1375 3.35992 15.3327 3.90821 15.1888L3.92877 15.1836C4.16096 15.1229 4.39767 15.1331 4.63541 15.1375C4.63281 14.7599 4.70507 14.3998 4.81327 14.0392C5.43848 11.9555 7.31638 10.5194 9.50971 10.5035L16.5238 10.4989C17.1999 10.4987 17.888 10.471 18.5496 10.6372C20.6214 11.1578 22.0088 12.9613 22.2174 15.0584C22.1318 15.1511 22.1706 15.3602 22.1701 15.475L22.1679 16.1416C22.1676 16.2216 22.1183 16.4391 22.1954 16.4893Z" fill="url(#paint1_linear_1_69)"/>
<path d="M13.9059 12.8928C15.3645 12.8727 16.5303 14.0425 16.5583 15.4951C16.5864 16.949 15.4971 18.1509 14.0271 18.1699C11.7917 18.1612 10.5165 15.651 11.9792 13.8548L12.0416 13.7813C12.5513 13.2289 13.1502 12.9227 13.9059 12.8928Z" fill="#B1E3F8"/>
<defs>
<linearGradient id="paint0_linear_1_69" x1="10.7815" y1="10.6301" x2="15.9995" y2="3.61888" gradientUnits="userSpaceOnUse">
<stop stop-color="#86A5F6"/>
<stop offset="1" stop-color="#BCEEF6"/>
</linearGradient>
<linearGradient id="paint1_linear_1_69" x1="8.78" y1="21.4954" x2="18.0917" y2="9.77407" gradientUnits="userSpaceOnUse">
<stop stop-color="#6D8CF9"/>
<stop offset="1" stop-color="#A1C8F7"/>
</linearGradient>
</defs>
</svg>
