<svg width="29" height="29" viewBox="0 0 29 29" fill="none" xmlns="http://www.w3.org/2000/svg">
<g id="brick-making-machines">
<path id="Vector" d="M23.5653 20.8291C24.0085 20.8322 24.4164 21.0556 24.6271 21.4591L24.6375 21.4787C24.9839 22.1439 24.5639 23.025 23.7859 23.0862C23.5227 23.1069 23.2521 23.0949 22.9882 23.095L19.7891 23.0944C19.5847 23.0935 19.4199 23.075 19.3326 22.854L19.3279 22.8364C19.4038 22.6188 19.51 22.1609 19.5532 21.9352C19.6475 21.4423 19.7425 20.9739 20.3287 20.9724L22.2028 20.9719C22.5336 20.9719 22.9126 21.0168 23.2356 20.9278C23.3489 20.8965 23.4471 20.8483 23.5653 20.8291Z" fill="#7294F7"/>
<path id="Vector_2" d="M19.4486 14.4416L19.4276 13.7652C19.4281 13.6515 19.4241 13.5251 19.4658 13.4178C19.7884 12.587 20.1815 12.5723 20.9677 12.571L22.4785 12.5692C22.613 12.5691 22.7592 12.5531 22.8895 12.5881L22.915 12.5947C23.5932 12.7776 23.8159 13.3495 23.814 13.9737C23.8132 14.2572 23.8396 14.5953 23.7339 14.8664C23.4282 15.6508 22.8073 15.6188 22.1291 15.6193L20.4564 15.6195C20.3347 15.6193 20.1915 15.6318 20.0732 15.6018L20.034 15.5892C19.5345 15.3998 19.5351 14.8974 19.4486 14.4416Z" fill="#7294F7"/>
<path id="Vector_3" d="M6.88217 15.6256L6.21806 15.6226C5.65341 15.6223 5.10427 15.3972 4.9797 14.773C4.93336 14.5406 4.94232 14.2994 4.94147 14.0635C4.93941 13.5045 5.13349 12.7152 5.78976 12.6041C5.9934 12.5696 6.19148 12.573 6.39722 12.5725L7.08607 12.5711C7.55901 12.5704 8.38974 12.4904 8.83435 12.6449L8.84865 12.6654C9.17232 13.1174 9.35955 12.9929 9.36045 13.7254C9.36112 14.2545 9.38609 15.1327 8.91844 15.4849C8.55886 15.7557 7.42006 15.5707 6.88217 15.6256Z" fill="#99BCF7"/>
<path id="Vector_4" d="M15.5123 4.00772C15.5778 4.00359 15.6608 4.01375 15.7285 4.01361L21.7934 4.01318C22.4328 4.00879 23.0676 4.06149 23.2412 4.85675L23.2465 4.88198C23.2756 5.01413 23.2775 5.1646 23.2579 5.29858L23.2541 5.32278C23.2391 5.42861 23.2064 5.52817 23.155 5.62203L23.1424 5.64498C22.8175 6.24495 22.2499 6.26059 21.6527 6.26144L20.5033 6.27086L20.543 6.51587C20.6123 7.10584 20.4622 7.84091 19.7985 8.01895C19.7558 8.03038 19.717 8.04468 19.6764 8.06207L19.6729 9.64445C19.9904 9.64584 20.2723 9.63132 20.5644 9.78309C21.2783 10.1541 21.3808 10.884 21.2575 11.6159L21.2532 11.6402C21.2044 11.9361 20.9923 12.0382 20.7255 12.0374L17.9267 12.0366C17.3996 12.0192 17.4475 11.0724 17.5052 10.7015C17.5907 10.1529 18.043 9.7211 18.5933 9.65117C18.7397 9.63257 18.9008 9.644 19.0488 9.64293L19.0577 9.62477C19.078 9.53723 19.059 9.39666 19.0591 9.30464L19.0617 8.15575C19.0619 8.08018 19.0541 8.05427 18.9732 8.02953L18.9333 8.01756C18.2244 7.77457 18.0734 6.90149 18.3045 6.27373C18.1056 6.24957 17.8962 6.26171 17.6957 6.26162L13.2137 6.26126L10.4325 6.27256C10.4722 6.34432 10.471 6.41761 10.4859 6.49614C10.5832 7.0075 10.4709 7.5725 10.0244 7.88237L10.0022 7.89761C9.88121 7.98314 9.76974 8.01187 9.63329 8.06135L9.62903 9.64539C9.79502 9.64485 9.99767 9.6245 10.1587 9.65969C10.6527 9.76754 11.1562 10.1727 11.2032 10.706L11.2051 10.7297C11.2205 10.9095 11.2505 11.5125 11.2024 11.6837L11.1942 11.7102C11.1559 11.8435 11.0303 11.968 10.8972 12.0043L10.8781 12.0092C10.6695 12.0684 10.4262 12.0311 10.2113 12.0313L8.25926 12.0357C7.72661 12.0376 7.46937 11.9828 7.46421 11.3873C7.45995 10.8995 7.41006 10.4467 7.78511 10.0688C8.15616 9.69492 8.53726 9.6466 9.02723 9.64485L9.02857 8.15109C9.02844 8.0761 9.04332 8.07077 8.96662 8.04172C8.77541 7.96938 8.58773 7.86686 8.45388 7.70841L8.43671 7.68775C8.10959 7.29876 8.11784 6.73689 8.24034 6.2683C7.7055 6.23926 6.96936 6.32411 6.48024 6.25589C5.30455 6.09192 5.00633 4.50717 6.18601 4.08116C6.51282 3.96314 6.89661 4.01741 7.23946 4.01692L15.5123 4.00772Z" fill="url(#paint0_linear_1_110)"/>
<path id="Vector_5" d="M10.2538 12.7026C10.5891 12.5513 10.958 12.5725 11.3157 12.5718L12.9619 12.5695C13.2331 12.5695 13.4553 12.5539 13.6917 12.713C13.9733 12.9026 14.197 13.1807 14.2569 13.5209L14.2611 13.5526L14.5574 13.4853C14.6262 13.0977 14.9217 12.7443 15.2942 12.614L15.311 12.6077C15.5119 12.5365 15.8173 12.5707 16.0315 12.5707L17.7518 12.5717C18.2895 12.5726 18.6374 12.67 18.8842 13.2362C18.9395 13.3631 18.9761 13.4976 19.0367 13.6225L19.0111 13.849C18.9798 14.056 18.9824 14.2752 18.9816 14.4846L19.0086 14.4845C19.1215 14.2946 19.2823 14.4868 19.4476 14.4408C19.534 14.8967 19.5335 15.3991 20.033 15.5853C20.0102 15.7373 20.1141 15.9343 20.1383 16.0941L23.0422 16.0813C23.1558 16.0814 23.2816 16.0702 23.3927 16.0932C24.5884 16.3406 24.3328 17.9509 23.2068 18.0157L5.85994 18.0084C5.68356 18.0138 5.49247 17.9968 5.31851 18.0185C5.0553 17.9353 4.80828 17.7938 4.65103 17.5576C4.32157 17.0624 4.58586 16.4344 5.08197 16.1882C5.30466 16.0777 6.23449 16.0071 6.53311 16.0404L6.79089 16.0522L6.66063 16.0342L6.7107 16.0004C6.75826 15.8729 6.87498 15.7624 6.88139 15.6317C7.41928 15.5701 8.55808 15.7551 8.91765 15.4843C9.3853 15.1321 9.36034 14.2538 9.35966 13.7248C9.35877 12.9923 9.17154 13.1167 8.84786 12.6648L8.83356 12.6443L10.2538 12.7026ZM8.83356 12.6443L8.84786 12.6648C9.17154 13.1167 9.35877 12.9923 9.35966 13.7248C9.36034 14.2538 9.3853 15.1321 8.91765 15.4843C8.55808 15.7551 7.41928 15.5701 6.88139 15.6317C6.87498 15.7624 6.75826 15.8729 6.7107 16.0004L6.66063 16.0342L6.79089 16.0592C7.06225 16.091 7.35222 16.081 7.62587 16.0815L9.13958 16.0857C9.28602 16.089 9.43165 16.1181 9.57984 16.121L18.3944 16.1228C18.8762 16.123 19.6741 16.1646 20.1383 16.0941C20.1141 15.9343 20.0102 15.7373 20.033 15.5853C19.5335 15.3991 19.534 14.8967 19.4476 14.4408C19.2823 14.4868 19.1215 14.2946 19.0086 14.4845L18.9774 14.4846C18.9524 14.5011 18.9578 15.2106 18.3701 15.496C18.348 15.5067 18.3265 15.5163 18.3056 15.5293L18.2765 15.5465C18.0622 15.6479 16.955 15.5863 16.6673 15.5863L15.7487 15.5859C15.5648 15.5857 15.3013 15.6179 15.1312 15.5551L15.1143 15.5484C14.6224 15.3596 14.5625 14.7594 14.5566 14.304L14.542 13.775L14.5574 13.4853L14.2611 13.5526L14.2618 13.6066L14.2357 14.4111C14.2219 14.5892 14.2051 14.7727 14.1497 14.9434L14.1241 15.0187C14.0225 15.2628 13.7943 15.4533 13.5569 15.5554L13.5184 15.5714C13.3982 15.6061 13.2361 15.5874 13.11 15.5875L11.1771 15.5869C10.9632 15.5866 10.746 15.5939 10.5326 15.5805C9.86497 15.5385 9.7941 14.6651 9.78491 14.1673C9.77124 13.4277 9.79791 13.2365 10.2538 12.7026L8.83356 12.6443Z" fill="url(#paint1_linear_1_110)"/>
<path id="Vector_6" d="M8.83407 12.6445L10.2543 12.7028C9.79841 13.2367 9.77174 13.4279 9.78541 14.1676C9.7946 14.6653 9.86547 15.5387 10.5331 15.5807C10.7465 15.5941 10.9637 15.5868 11.1776 15.5871L13.1105 15.5877C13.2366 15.5876 13.3987 15.6063 13.5189 15.5716L13.5574 15.5557C13.7948 15.4536 14.023 15.263 14.1246 15.019L14.1502 14.9436C14.2056 14.773 14.2224 14.5894 14.2362 14.4113L14.2623 13.6068L14.2616 13.5528L14.5579 13.4855L14.5425 13.7752L14.5571 14.3043C14.563 14.7596 14.6229 15.3598 15.1148 15.5486L15.1317 15.5554C15.3018 15.6181 15.5653 15.5859 15.7492 15.5862L16.6678 15.5866C16.9555 15.5865 18.0627 15.6481 18.277 15.5468L18.3062 15.5295C18.327 15.5165 18.3485 15.5069 18.3706 15.4962C18.9583 15.2108 18.9529 14.5014 18.9779 14.4848L19.0091 14.4847C19.122 14.2948 19.2828 14.4871 19.4481 14.441C19.5346 14.8969 19.534 15.3993 20.0335 15.5855C20.0107 15.7376 20.1146 15.9345 20.1388 16.0944C19.6746 16.1648 18.8767 16.1232 18.3949 16.1231L9.58034 16.1212C9.43216 16.1184 9.28652 16.0892 9.14008 16.0859L7.62637 16.0818C7.35272 16.0812 7.06276 16.0912 6.79139 16.0594L6.66113 16.0344L6.7112 16.0006C6.75876 15.8732 6.87548 15.7627 6.88189 15.632C7.41978 15.5703 8.55858 15.7553 8.91816 15.4845C9.38581 15.1324 9.36084 14.2541 9.36017 13.7251C9.35927 12.9925 9.17204 13.117 8.84837 12.6651L8.83407 12.6445ZM14.2616 13.5528L14.2636 13.6068L14.2666 13.6222C14.3312 13.9655 14.3221 13.7353 14.5425 13.7752L14.5579 13.4855L14.2616 13.5528Z" fill="#B1E3F8"/>
<path id="Vector_7" d="M14.5581 13.4853C14.6269 13.0977 14.9224 12.7443 15.2949 12.614L15.3117 12.6077C15.5126 12.5365 15.818 12.5707 16.0322 12.5707L17.7525 12.5717C18.2902 12.5726 18.6381 12.67 18.8849 13.2362C18.9403 13.3631 18.9768 13.4976 19.0374 13.6225L19.0118 13.849C18.9805 14.056 18.9831 14.2752 18.9823 14.4846C18.9531 14.5011 18.9585 15.2106 18.3708 15.496C18.3487 15.5067 18.3272 15.5163 18.3063 15.5293L18.2772 15.5465C18.0629 15.6479 16.9557 15.5863 16.668 15.5863L15.7494 15.5859C15.5655 15.5857 15.302 15.6179 15.1319 15.5551L15.115 15.5484C14.6231 15.3596 14.5632 14.7594 14.5573 14.304L14.5544 13.775L14.5581 13.4853Z" fill="#88ABF7"/>
<path id="Vector_8" d="M10.2543 12.6991C10.5896 12.5516 10.9586 12.5727 11.3163 12.572L12.9624 12.5698C13.2337 12.5698 13.4559 12.5542 13.6923 12.7133C13.9739 12.9029 14.1976 13.1809 14.2574 13.5212L14.2617 13.5529L14.2637 13.6068L14.2362 14.4114C14.2224 14.5895 14.2056 14.773 14.1502 14.9437L14.1246 15.019C14.0231 15.2631 13.7949 15.4536 13.5575 15.5557L13.519 15.5717C13.3988 15.6064 13.2367 15.5876 13.1105 15.5878L11.1777 15.5872C10.9638 15.5869 10.7466 15.5941 10.5332 15.5807C9.86554 15.5388 9.79468 14.6653 9.78549 14.1676C9.77182 13.428 9.79849 13.2367 10.2543 12.6991Z" fill="#88ABF7"/>
<path id="Vector_9" d="M5.31947 18.0273C5.49343 17.9977 5.68452 18.0148 5.8609 18.0094L23.2077 17.9951L23.3021 18.442C23.3961 18.4779 23.4741 18.5325 23.5145 18.6286L23.5401 18.7015C23.6257 18.9273 23.5899 19.2553 23.5901 19.4965L23.5901 20.4153V20.8296C23.447 20.8488 23.3489 20.897 23.2355 20.9283C22.9125 21.0173 22.5335 20.9724 22.2027 20.9724L20.3287 20.9729C19.7425 20.9744 19.6474 21.4428 19.5532 21.9357C19.51 22.1614 19.4038 22.6193 19.3278 22.8369C19.2155 22.7459 19.065 22.6595 18.9343 22.5983C18.758 23.2279 18.1302 23.0962 17.6311 23.0957L15.9892 23.0936L5.35909 23.0957C5.20826 23.0957 5.05034 23.1045 4.90122 23.0801L4.87571 23.0758C3.70494 22.8854 3.67324 21.1083 4.9048 20.8667C5.00718 20.8466 5.11919 20.845 5.22332 20.8344L5.22054 20.5057C5.14681 20.2063 5.16541 19.8762 5.1646 19.5714C5.16375 19.2384 5.08195 18.6701 5.38818 18.4357L5.40002 18.4187C5.49356 18.2748 5.46214 18.1173 5.31947 18.0273Z" fill="url(#paint2_linear_1_110)"/>
<path id="Vector_10" d="M15.9881 23.0932L15.2825 23.0857L16.0667 23.0666C16.2321 23.0552 16.4237 23.0933 16.5848 23.067C16.7119 23.0463 16.8783 23.0626 17.0103 23.063C16.9593 22.9443 16.734 22.83 16.659 22.7136L16.6507 22.7004C16.6277 22.6691 16.6133 22.6462 16.5995 22.6098L16.5937 22.594C16.5421 22.459 16.6058 22.3458 16.6168 22.2147C16.6246 22.1217 16.6932 22.1019 16.7098 22.0267C16.7472 21.8582 16.9155 21.5407 16.998 21.358L17.009 21.3338C16.9962 21.2769 16.9993 21.2297 16.971 21.1741L16.9636 21.1601C16.9692 21.1064 17.035 21.0679 17.0681 21.022L17.0519 21.0015C16.4473 20.867 15.2845 21.0471 14.5643 20.9811C14.7826 20.9627 15.0113 20.9742 15.2306 20.9739L17.71 20.9704C17.9087 20.97 18.1135 20.9563 18.3113 20.9698C18.8953 21.0095 18.9927 21.9061 18.9441 22.3766L18.9337 22.5979C18.7569 23.2274 18.1291 23.0957 17.63 23.0953L15.9881 23.0932Z" fill="#88ABF7"/>
<path id="Vector_11" d="M5.38768 18.4346L8.92887 18.4471C9.46143 18.448 9.75951 18.4809 9.93306 19.0912L9.93992 19.1148C10.0821 19.6241 9.91352 20.286 9.3716 20.4651L9.34816 20.4731C9.17083 20.5313 8.94151 20.5034 8.75491 20.5034L5.21179 20.5027C5.14631 20.2052 5.16491 19.8751 5.1641 19.5702C5.16325 19.2373 5.08145 18.669 5.38768 18.4346Z" fill="#99BCF7"/>
<path id="Vector_12" d="M23.5899 20.4149L23.5685 20.5067L19.4041 20.5054C19.0445 20.5055 18.3923 20.5651 18.1618 20.2161C17.876 19.7832 18.0146 18.8555 18.4645 18.5655L18.5035 18.5405C18.67 18.4114 19.2301 18.4816 19.4424 18.4717L23.3018 18.4473C23.3959 18.4776 23.4738 18.5321 23.5143 18.6283L23.5399 18.7012C23.6255 18.9269 23.5896 19.2549 23.5899 19.4961L23.5899 20.4149Z" fill="#7294F7"/>
<path id="Vector_13" d="M11.2421 18.4529L16.7466 18.4473C16.8208 18.4472 16.9038 18.44 16.9743 18.4655L16.9921 18.4723C17.0417 18.4899 17.085 18.5056 17.1298 18.5338L17.1463 18.5443C17.534 18.7833 17.6078 19.3685 17.5039 19.7733L17.4574 19.9385C17.3434 20.2423 17.1284 20.4232 16.819 20.4901C16.5106 20.5331 16.1652 20.5042 15.8529 20.5037L11.4436 20.5019C10.8712 20.4999 10.5984 20.3997 10.504 19.7927C10.446 19.4193 10.5564 18.7496 10.9307 18.5418L10.9834 18.5135C11.0639 18.474 11.1543 18.4638 11.2421 18.4529Z" fill="#88ABF7"/>
</g>
<defs>
<linearGradient id="paint0_linear_1_110" x1="23.4631" y1="6.70094" x2="5.97912" y2="9.06329" gradientUnits="userSpaceOnUse">
<stop stop-color="#698BFF"/>
<stop offset="1" stop-color="#96BDF5"/>
</linearGradient>
<linearGradient id="paint1_linear_1_110" x1="24.1426" y1="16.7278" x2="4.54385" y2="17.3412" gradientUnits="userSpaceOnUse">
<stop stop-color="#6B89FB"/>
<stop offset="1" stop-color="#A9D9F5"/>
</linearGradient>
<linearGradient id="paint2_linear_1_110" x1="15.0337" y1="24.2609" x2="12.0662" y2="15.7266" gradientUnits="userSpaceOnUse">
<stop stop-color="#8BB4F7"/>
<stop offset="1" stop-color="#B8F9FA"/>
</linearGradient>
</defs>
</svg>
