<svg width="38" height="38" viewBox="0 0 38 38" fill="none" xmlns="http://www.w3.org/2000/svg">
<path opacity="0.5" d="M2.78249 35.2174C5.56497 38 10.0433 38 19 38C27.9566 38 32.4351 38 35.2174 35.2174C38 32.4351 38 27.9566 38 19C38 10.0433 38 5.56497 35.2174 2.78249C32.4351 -2.26498e-07 27.9566 0 19 0C10.0433 0 5.56497 -2.26498e-07 2.78249 2.78249C-2.26498e-07 5.56497 0 10.0433 0 19C0 27.9566 -2.26498e-07 32.4351 2.78249 35.2174Z" fill="#2280E2"/>
<path d="M11.4 20.8996C12.4493 20.8996 13.3 20.049 13.3 18.9996C13.3 17.9502 12.4493 17.0996 11.4 17.0996C10.3507 17.0996 9.5 17.9502 9.5 18.9996C9.5 20.049 10.3507 20.8996 11.4 20.8996Z" fill="#2280E2"/>
<path d="M18.9996 20.8996C20.049 20.8996 20.8996 20.049 20.8996 18.9996C20.8996 17.9502 20.049 17.0996 18.9996 17.0996C17.9502 17.0996 17.0996 17.9502 17.0996 18.9996C17.0996 20.049 17.9502 20.8996 18.9996 20.8996Z" fill="#2280E2"/>
<path d="M26.6002 20.8996C27.6496 20.8996 28.5002 20.049 28.5002 18.9996C28.5002 17.9502 27.6496 17.0996 26.6002 17.0996C25.5508 17.0996 24.7002 17.9502 24.7002 18.9996C24.7002 20.049 25.5508 20.8996 26.6002 20.8996Z" fill="#2280E2"/>
</svg>
