<svg width="34" height="27" viewBox="0 0 34 27" fill="none" xmlns="http://www.w3.org/2000/svg">
<rect width="34" height="27" rx="5" fill="#DF2407"/>
<path d="M7.08145 4.50844L8.26015 8.168H12.0745L8.98864 10.4297L10.1673 14.0893L7.08145 11.8276L3.99557 14.0893L5.17426 10.4297L2.08838 8.168H5.9027L7.08145 4.50844Z" fill="#FFDA44"/>
<path d="M14.5101 16.68L13.3529 15.8319L12.1957 16.6799L12.6376 15.3077L11.4805 14.4595H12.9109L13.3529 13.0872L13.7949 14.4595H15.2253L14.0681 15.3076L14.5101 16.68Z" fill="#FFDA44"/>
<path d="M17.529 12.4884H16.0986L15.6566 13.8606L15.2146 12.4884L13.7842 12.4884L14.9415 11.6401L14.4993 10.2679L15.6566 11.116L16.8139 10.2678L16.3718 11.6401L17.529 12.4884Z" fill="#FFDA44"/>
<path d="M17.529 7.30718L16.3718 8.15538L16.8138 9.52757L15.6566 8.67954L14.4993 9.52768L14.9414 8.15527L13.7842 7.30724L15.2146 7.30708L15.6566 5.93478L16.0986 7.30708L17.529 7.30718Z" fill="#FFDA44"/>
<path d="M14.5105 3.11544L14.0686 4.48785L15.2257 5.33588L13.7954 5.33593L13.3533 6.70839L12.9113 5.33588L11.481 5.33598L12.6382 4.48774L12.1961 3.11539L13.3533 3.96363L14.5105 3.11544Z" fill="#FFDA44"/>
</svg>
