<svg width="16" height="12" viewBox="0 0 16 12" fill="none" xmlns="http://www.w3.org/2000/svg">
<path d="M15.8591 0.80378L11.0066 5.625L15.8591 10.4462C15.9468 10.2629 16 10.0602 16 9.8438V1.40625C16 1.18978 15.9468 0.98713 15.8591 0.80378ZM14.5938 0H1.40625C1.18978 0 0.987125 0.05322 0.803781 0.14094L7.00575 6.31166C7.55413 6.86003 8.44588 6.86003 8.99425 6.31166L15.1962 0.14094C15.0129 0.05322 14.8102 0 14.5938 0ZM0.140938 0.80378C0.0532188 0.98713 0 1.18978 0 1.40625V9.8438C0 10.0602 0.0532188 10.2629 0.140938 10.4462L4.99341 5.625L0.140938 0.80378Z" fill="#4B4F59"/>
<path d="M10.3447 6.28906L9.658 6.97572C8.74428 7.8894 7.2575 7.8894 6.34378 6.97572L5.65716 6.28906L0.804688 11.1103C0.98803 11.198 1.19069 11.2512 1.40716 11.2512H14.5947C14.8111 11.2512 15.0138 11.198 15.1971 11.1103L10.3447 6.28906Z" fill="#4B4F59"/>
</svg>
